<?xml version="1.0" encoding="utf-8"?>
<svg xmlns="http://www.w3.org/2000/svg" xmlns:xlink="http://www.w3.org/1999/xlink" style="margin: auto; background:#123659; display: block; z-index: 1; position: relative; shape-rendering: auto;" width="1440" height="1430" preserveAspectRatio="xMidYMid" viewBox="0 0 1440 1430">
<g transform="translate(720,715) scale(1,1) translate(-720,-715)"><g transform="translate(-100 52.65189227288405) rotate(0)">
  <animateTransform attributeName="transform" type="translate" keyTimes="0;1" values="-100 52.65189227288405;1566.9485717111436 1530" dur="12.5s" repeatCount="indefinite" begin="-8.337747250715502s"></animateTransform>
  <animateTransform attributeName="transform" type="rotate" keyTimes="0;1" begin="-8.337747250715502s" values="0 50 50;240.14501208525434 50 50" dur="12.5s" repeatCount="indefinite" additive="sum"></animateTransform>
  <path d="M87.422,66.495c-2.009-0.544-4.049-0.97-6.107-1.283c10.617-11.116,15.747-27.37,13.129-42.549 c-5.236,1.77-10.223,4.252-14.824,7.313c-4.13,2.747-7.948,5.961-11.374,9.55C67.425,24.863,61.344,10.451,50.991,0 c-4.015,5.451-7.281,11.444-9.753,17.744c-3.579,9.122-5.501,18.893-5.669,28.691c-4.79-7.979-11.256-14.955-18.858-20.322 c-4.514-3.187-9.431-5.806-14.616-7.72c-3.361,16.717,2.731,35.015,15.445,46.379c0.369,0.33,0.745,0.654,1.126,0.972 c-2.359,0.411-4.689,0.983-6.969,1.714C7.582,68.775,3.634,70.61,0,72.945c8.85,9.963,23.134,14.771,36.208,12.186 c3.524-0.697,7.002-1.919,9.887-4.057c0.073-0.054,0.145-0.111,0.218-0.167c-0.987,5.662-2.714,11.136-5.104,16.221l7.509,2.806 c1.698-5.797,2.631-11.748,2.814-17.669c0.107,0.076,0.215,0.152,0.324,0.225c3.142,2.114,6.863,3.232,10.607,3.796 C76.352,88.379,91.161,82.628,100,71.71C96.061,69.427,91.816,67.684,87.422,66.495z" fill="#87434d" transform="scale(1.051847893789289)"></path>
</g><g transform="translate(-100 349.90515958667413) rotate(0)">
  <animateTransform attributeName="transform" type="translate" keyTimes="0;1" values="-100 349.90515958667413;1158.79903358507 1530" dur="12.5s" repeatCount="indefinite" begin="-10.974654104117961s"></animateTransform>
  <animateTransform attributeName="transform" type="rotate" keyTimes="0;1" begin="-10.974654104117961s" values="0 50 50;910.2132149569215 50 50" dur="12.5s" repeatCount="indefinite" additive="sum"></animateTransform>
  <path d="M87.422,66.495c-2.009-0.544-4.049-0.97-6.107-1.283c10.617-11.116,15.747-27.37,13.129-42.549 c-5.236,1.77-10.223,4.252-14.824,7.313c-4.13,2.747-7.948,5.961-11.374,9.55C67.425,24.863,61.344,10.451,50.991,0 c-4.015,5.451-7.281,11.444-9.753,17.744c-3.579,9.122-5.501,18.893-5.669,28.691c-4.79-7.979-11.256-14.955-18.858-20.322 c-4.514-3.187-9.431-5.806-14.616-7.72c-3.361,16.717,2.731,35.015,15.445,46.379c0.369,0.33,0.745,0.654,1.126,0.972 c-2.359,0.411-4.689,0.983-6.969,1.714C7.582,68.775,3.634,70.61,0,72.945c8.85,9.963,23.134,14.771,36.208,12.186 c3.524-0.697,7.002-1.919,9.887-4.057c0.073-0.054,0.145-0.111,0.218-0.167c-0.987,5.662-2.714,11.136-5.104,16.221l7.509,2.806 c1.698-5.797,2.631-11.748,2.814-17.669c0.107,0.076,0.215,0.152,0.324,0.225c3.142,2.114,6.863,3.232,10.607,3.796 C76.352,88.379,91.161,82.628,100,71.71C96.061,69.427,91.816,67.684,87.422,66.495z" fill="#869ec9" transform="scale(0.8136724964319204)"></path>
</g><g transform="translate(-100 275.0431889632705) rotate(0)">
  <animateTransform attributeName="transform" type="translate" keyTimes="0;1" values="-100 275.0431889632705;1540 1062.7252243701394" dur="12.5s" repeatCount="indefinite" begin="-3.313347162496383s"></animateTransform>
  <animateTransform attributeName="transform" type="rotate" keyTimes="0;1" begin="-3.313347162496383s" values="0 50 50;590.9639777295313 50 50" dur="12.5s" repeatCount="indefinite" additive="sum"></animateTransform>
  <path d="M87.422,66.495c-2.009-0.544-4.049-0.97-6.107-1.283c10.617-11.116,15.747-27.37,13.129-42.549 c-5.236,1.77-10.223,4.252-14.824,7.313c-4.13,2.747-7.948,5.961-11.374,9.55C67.425,24.863,61.344,10.451,50.991,0 c-4.015,5.451-7.281,11.444-9.753,17.744c-3.579,9.122-5.501,18.893-5.669,28.691c-4.79-7.979-11.256-14.955-18.858-20.322 c-4.514-3.187-9.431-5.806-14.616-7.72c-3.361,16.717,2.731,35.015,15.445,46.379c0.369,0.33,0.745,0.654,1.126,0.972 c-2.359,0.411-4.689,0.983-6.969,1.714C7.582,68.775,3.634,70.61,0,72.945c8.85,9.963,23.134,14.771,36.208,12.186 c3.524-0.697,7.002-1.919,9.887-4.057c0.073-0.054,0.145-0.111,0.218-0.167c-0.987,5.662-2.714,11.136-5.104,16.221l7.509,2.806 c1.698-5.797,2.631-11.748,2.814-17.669c0.107,0.076,0.215,0.152,0.324,0.225c3.142,2.114,6.863,3.232,10.607,3.796 C76.352,88.379,91.161,82.628,100,71.71C96.061,69.427,91.816,67.684,87.422,66.495z" fill="#201c5d" transform="scale(0.7498385148965606)"></path>
</g><g transform="translate(-100 387.24328359437027) rotate(0)">
  <animateTransform attributeName="transform" type="translate" keyTimes="0;1" values="-100 387.24328359437027;1361.8352839881643 1530" dur="12.5s" repeatCount="indefinite" begin="-7.205835877242073s"></animateTransform>
  <animateTransform attributeName="transform" type="rotate" keyTimes="0;1" begin="-7.205835877242073s" values="0 50 50;1012.8500006795132 50 50" dur="12.5s" repeatCount="indefinite" additive="sum"></animateTransform>
  <path d="M87.422,66.495c-2.009-0.544-4.049-0.97-6.107-1.283c10.617-11.116,15.747-27.37,13.129-42.549 c-5.236,1.77-10.223,4.252-14.824,7.313c-4.13,2.747-7.948,5.961-11.374,9.55C67.425,24.863,61.344,10.451,50.991,0 c-4.015,5.451-7.281,11.444-9.753,17.744c-3.579,9.122-5.501,18.893-5.669,28.691c-4.79-7.979-11.256-14.955-18.858-20.322 c-4.514-3.187-9.431-5.806-14.616-7.72c-3.361,16.717,2.731,35.015,15.445,46.379c0.369,0.33,0.745,0.654,1.126,0.972 c-2.359,0.411-4.689,0.983-6.969,1.714C7.582,68.775,3.634,70.61,0,72.945c8.85,9.963,23.134,14.771,36.208,12.186 c3.524-0.697,7.002-1.919,9.887-4.057c0.073-0.054,0.145-0.111,0.218-0.167c-0.987,5.662-2.714,11.136-5.104,16.221l7.509,2.806 c1.698-5.797,2.631-11.748,2.814-17.669c0.107,0.076,0.215,0.152,0.324,0.225c3.142,2.114,6.863,3.232,10.607,3.796 C76.352,88.379,91.161,82.628,100,71.71C96.061,69.427,91.816,67.684,87.422,66.495z" fill="#552b2f" transform="scale(1.107075257246326)"></path>
</g><g transform="translate(111.13433255138467 -100) rotate(0)">
  <animateTransform attributeName="transform" type="translate" keyTimes="0;1" values="111.13433255138467 -100;1540 1181.8983474287047" dur="12.5s" repeatCount="indefinite" begin="-7.754692094378318s"></animateTransform>
  <animateTransform attributeName="transform" type="rotate" keyTimes="0;1" begin="-7.754692094378318s" values="0 50 50;774.7952013954551 50 50" dur="12.5s" repeatCount="indefinite" additive="sum"></animateTransform>
  <path d="M87.422,66.495c-2.009-0.544-4.049-0.97-6.107-1.283c10.617-11.116,15.747-27.37,13.129-42.549 c-5.236,1.77-10.223,4.252-14.824,7.313c-4.13,2.747-7.948,5.961-11.374,9.55C67.425,24.863,61.344,10.451,50.991,0 c-4.015,5.451-7.281,11.444-9.753,17.744c-3.579,9.122-5.501,18.893-5.669,28.691c-4.79-7.979-11.256-14.955-18.858-20.322 c-4.514-3.187-9.431-5.806-14.616-7.72c-3.361,16.717,2.731,35.015,15.445,46.379c0.369,0.33,0.745,0.654,1.126,0.972 c-2.359,0.411-4.689,0.983-6.969,1.714C7.582,68.775,3.634,70.61,0,72.945c8.85,9.963,23.134,14.771,36.208,12.186 c3.524-0.697,7.002-1.919,9.887-4.057c0.073-0.054,0.145-0.111,0.218-0.167c-0.987,5.662-2.714,11.136-5.104,16.221l7.509,2.806 c1.698-5.797,2.631-11.748,2.814-17.669c0.107,0.076,0.215,0.152,0.324,0.225c3.142,2.114,6.863,3.232,10.607,3.796 C76.352,88.379,91.161,82.628,100,71.71C96.061,69.427,91.816,67.684,87.422,66.495z" fill="#201c5d" transform="scale(1.070242607719529)"></path>
</g><g transform="translate(-100 206.97239010562987) rotate(0)">
  <animateTransform attributeName="transform" type="translate" keyTimes="0;1" values="-100 206.97239010562987;943.1084127439326 1530" dur="12.5s" repeatCount="indefinite" begin="-1.2038364377703947s"></animateTransform>
  <animateTransform attributeName="transform" type="rotate" keyTimes="0;1" begin="-1.2038364377703947s" values="0 50 50;211.2557385131976 50 50" dur="12.5s" repeatCount="indefinite" additive="sum"></animateTransform>
  <path d="M87.422,66.495c-2.009-0.544-4.049-0.97-6.107-1.283c10.617-11.116,15.747-27.37,13.129-42.549 c-5.236,1.77-10.223,4.252-14.824,7.313c-4.13,2.747-7.948,5.961-11.374,9.55C67.425,24.863,61.344,10.451,50.991,0 c-4.015,5.451-7.281,11.444-9.753,17.744c-3.579,9.122-5.501,18.893-5.669,28.691c-4.79-7.979-11.256-14.955-18.858-20.322 c-4.514-3.187-9.431-5.806-14.616-7.72c-3.361,16.717,2.731,35.015,15.445,46.379c0.369,0.33,0.745,0.654,1.126,0.972 c-2.359,0.411-4.689,0.983-6.969,1.714C7.582,68.775,3.634,70.61,0,72.945c8.85,9.963,23.134,14.771,36.208,12.186 c3.524-0.697,7.002-1.919,9.887-4.057c0.073-0.054,0.145-0.111,0.218-0.167c-0.987,5.662-2.714,11.136-5.104,16.221l7.509,2.806 c1.698-5.797,2.631-11.748,2.814-17.669c0.107,0.076,0.215,0.152,0.324,0.225c3.142,2.114,6.863,3.232,10.607,3.796 C76.352,88.379,91.161,82.628,100,71.71C96.061,69.427,91.816,67.684,87.422,66.495z" fill="#9fbae7" transform="scale(1.0388126731289946)"></path>
</g><g transform="translate(694.513971640142 -100) rotate(0)">
  <animateTransform attributeName="transform" type="translate" keyTimes="0;1" values="694.513971640142 -100;2267.1927980422774 1530" dur="12.5s" repeatCount="indefinite" begin="-6.080381603364554s"></animateTransform>
  <animateTransform attributeName="transform" type="rotate" keyTimes="0;1" begin="-6.080381603364554s" values="0 50 50;504.0204960405864 50 50" dur="12.5s" repeatCount="indefinite" additive="sum"></animateTransform>
  <path d="M87.422,66.495c-2.009-0.544-4.049-0.97-6.107-1.283c10.617-11.116,15.747-27.37,13.129-42.549 c-5.236,1.77-10.223,4.252-14.824,7.313c-4.13,2.747-7.948,5.961-11.374,9.55C67.425,24.863,61.344,10.451,50.991,0 c-4.015,5.451-7.281,11.444-9.753,17.744c-3.579,9.122-5.501,18.893-5.669,28.691c-4.79-7.979-11.256-14.955-18.858-20.322 c-4.514-3.187-9.431-5.806-14.616-7.72c-3.361,16.717,2.731,35.015,15.445,46.379c0.369,0.33,0.745,0.654,1.126,0.972 c-2.359,0.411-4.689,0.983-6.969,1.714C7.582,68.775,3.634,70.61,0,72.945c8.85,9.963,23.134,14.771,36.208,12.186 c3.524-0.697,7.002-1.919,9.887-4.057c0.073-0.054,0.145-0.111,0.218-0.167c-0.987,5.662-2.714,11.136-5.104,16.221l7.509,2.806 c1.698-5.797,2.631-11.748,2.814-17.669c0.107,0.076,0.215,0.152,0.324,0.225c3.142,2.114,6.863,3.232,10.607,3.796 C76.352,88.379,91.161,82.628,100,71.71C96.061,69.427,91.816,67.684,87.422,66.495z" fill="#87434d" transform="scale(0.5166276058082188)"></path>
</g><g transform="translate(-100 516.8392364935081) rotate(0)">
  <animateTransform attributeName="transform" type="translate" keyTimes="0;1" values="-100 516.8392364935081;1540 2596.5180476055816" dur="12.5s" repeatCount="indefinite" begin="-11.465819102068709s"></animateTransform>
  <animateTransform attributeName="transform" type="rotate" keyTimes="0;1" begin="-11.465819102068709s" values="0 50 50;460.40262647756464 50 50" dur="12.5s" repeatCount="indefinite" additive="sum"></animateTransform>
  <path d="M87.422,66.495c-2.009-0.544-4.049-0.97-6.107-1.283c10.617-11.116,15.747-27.37,13.129-42.549 c-5.236,1.77-10.223,4.252-14.824,7.313c-4.13,2.747-7.948,5.961-11.374,9.55C67.425,24.863,61.344,10.451,50.991,0 c-4.015,5.451-7.281,11.444-9.753,17.744c-3.579,9.122-5.501,18.893-5.669,28.691c-4.79-7.979-11.256-14.955-18.858-20.322 c-4.514-3.187-9.431-5.806-14.616-7.72c-3.361,16.717,2.731,35.015,15.445,46.379c0.369,0.33,0.745,0.654,1.126,0.972 c-2.359,0.411-4.689,0.983-6.969,1.714C7.582,68.775,3.634,70.61,0,72.945c8.85,9.963,23.134,14.771,36.208,12.186 c3.524-0.697,7.002-1.919,9.887-4.057c0.073-0.054,0.145-0.111,0.218-0.167c-0.987,5.662-2.714,11.136-5.104,16.221l7.509,2.806 c1.698-5.797,2.631-11.748,2.814-17.669c0.107,0.076,0.215,0.152,0.324,0.225c3.142,2.114,6.863,3.232,10.607,3.796 C76.352,88.379,91.161,82.628,100,71.71C96.061,69.427,91.816,67.684,87.422,66.495z" fill="#87434d" transform="scale(0.7735551219758375)"></path>
</g><g transform="translate(-100 478.75412719084386) rotate(0)">
  <animateTransform attributeName="transform" type="translate" keyTimes="0;1" values="-100 478.75412719084386;1540 1270.0607278952712" dur="12.5s" repeatCount="indefinite" begin="-7.203560538671192s"></animateTransform>
  <animateTransform attributeName="transform" type="rotate" keyTimes="0;1" begin="-7.203560538671192s" values="0 50 50;494.11777604869695 50 50" dur="12.5s" repeatCount="indefinite" additive="sum"></animateTransform>
  <path d="M87.422,66.495c-2.009-0.544-4.049-0.97-6.107-1.283c10.617-11.116,15.747-27.37,13.129-42.549 c-5.236,1.77-10.223,4.252-14.824,7.313c-4.13,2.747-7.948,5.961-11.374,9.55C67.425,24.863,61.344,10.451,50.991,0 c-4.015,5.451-7.281,11.444-9.753,17.744c-3.579,9.122-5.501,18.893-5.669,28.691c-4.79-7.979-11.256-14.955-18.858-20.322 c-4.514-3.187-9.431-5.806-14.616-7.72c-3.361,16.717,2.731,35.015,15.445,46.379c0.369,0.33,0.745,0.654,1.126,0.972 c-2.359,0.411-4.689,0.983-6.969,1.714C7.582,68.775,3.634,70.61,0,72.945c8.85,9.963,23.134,14.771,36.208,12.186 c3.524-0.697,7.002-1.919,9.887-4.057c0.073-0.054,0.145-0.111,0.218-0.167c-0.987,5.662-2.714,11.136-5.104,16.221l7.509,2.806 c1.698-5.797,2.631-11.748,2.814-17.669c0.107,0.076,0.215,0.152,0.324,0.225c3.142,2.114,6.863,3.232,10.607,3.796 C76.352,88.379,91.161,82.628,100,71.71C96.061,69.427,91.816,67.684,87.422,66.495z" fill="#201c5d" transform="scale(0.649325964288555)"></path>
</g><g transform="translate(652.743017072302 -100) rotate(0)">
  <animateTransform attributeName="transform" type="translate" keyTimes="0;1" values="652.743017072302 -100;1540 772.7648009215349" dur="12.5s" repeatCount="indefinite" begin="-5.7860513587522675s"></animateTransform>
  <animateTransform attributeName="transform" type="rotate" keyTimes="0;1" begin="-5.7860513587522675s" values="0 50 50;341.74581689621266 50 50" dur="12.5s" repeatCount="indefinite" additive="sum"></animateTransform>
  <path d="M87.422,66.495c-2.009-0.544-4.049-0.97-6.107-1.283c10.617-11.116,15.747-27.37,13.129-42.549 c-5.236,1.77-10.223,4.252-14.824,7.313c-4.13,2.747-7.948,5.961-11.374,9.55C67.425,24.863,61.344,10.451,50.991,0 c-4.015,5.451-7.281,11.444-9.753,17.744c-3.579,9.122-5.501,18.893-5.669,28.691c-4.79-7.979-11.256-14.955-18.858-20.322 c-4.514-3.187-9.431-5.806-14.616-7.72c-3.361,16.717,2.731,35.015,15.445,46.379c0.369,0.33,0.745,0.654,1.126,0.972 c-2.359,0.411-4.689,0.983-6.969,1.714C7.582,68.775,3.634,70.61,0,72.945c8.85,9.963,23.134,14.771,36.208,12.186 c3.524-0.697,7.002-1.919,9.887-4.057c0.073-0.054,0.145-0.111,0.218-0.167c-0.987,5.662-2.714,11.136-5.104,16.221l7.509,2.806 c1.698-5.797,2.631-11.748,2.814-17.669c0.107,0.076,0.215,0.152,0.324,0.225c3.142,2.114,6.863,3.232,10.607,3.796 C76.352,88.379,91.161,82.628,100,71.71C96.061,69.427,91.816,67.684,87.422,66.495z" fill="#201c5d" transform="scale(0.7628557195524787)"></path>
</g><g transform="translate(94.60099485400949 -100) rotate(0)">
  <animateTransform attributeName="transform" type="translate" keyTimes="0;1" values="94.60099485400949 -100;1964.5428899328083 1530" dur="12.5s" repeatCount="indefinite" begin="-2.1966987728442025s"></animateTransform>
  <animateTransform attributeName="transform" type="rotate" keyTimes="0;1" begin="-2.1966987728442025s" values="0 50 50;476.432221226975 50 50" dur="12.5s" repeatCount="indefinite" additive="sum"></animateTransform>
  <path d="M87.422,66.495c-2.009-0.544-4.049-0.97-6.107-1.283c10.617-11.116,15.747-27.37,13.129-42.549 c-5.236,1.77-10.223,4.252-14.824,7.313c-4.13,2.747-7.948,5.961-11.374,9.55C67.425,24.863,61.344,10.451,50.991,0 c-4.015,5.451-7.281,11.444-9.753,17.744c-3.579,9.122-5.501,18.893-5.669,28.691c-4.79-7.979-11.256-14.955-18.858-20.322 c-4.514-3.187-9.431-5.806-14.616-7.72c-3.361,16.717,2.731,35.015,15.445,46.379c0.369,0.33,0.745,0.654,1.126,0.972 c-2.359,0.411-4.689,0.983-6.969,1.714C7.582,68.775,3.634,70.61,0,72.945c8.85,9.963,23.134,14.771,36.208,12.186 c3.524-0.697,7.002-1.919,9.887-4.057c0.073-0.054,0.145-0.111,0.218-0.167c-0.987,5.662-2.714,11.136-5.104,16.221l7.509,2.806 c1.698-5.797,2.631-11.748,2.814-17.669c0.107,0.076,0.215,0.152,0.324,0.225c3.142,2.114,6.863,3.232,10.607,3.796 C76.352,88.379,91.161,82.628,100,71.71C96.061,69.427,91.816,67.684,87.422,66.495z" fill="#201c5d" transform="scale(0.9889971764879004)"></path>
</g><g transform="translate(-100 503.2443909796213) rotate(0)">
  <animateTransform attributeName="transform" type="translate" keyTimes="0;1" values="-100 503.2443909796213;917.0734684079181 1530" dur="12.5s" repeatCount="indefinite" begin="-6.046899845004808s"></animateTransform>
  <animateTransform attributeName="transform" type="rotate" keyTimes="0;1" begin="-6.046899845004808s" values="0 50 50;1039.9498792899926 50 50" dur="12.5s" repeatCount="indefinite" additive="sum"></animateTransform>
  <path d="M87.422,66.495c-2.009-0.544-4.049-0.97-6.107-1.283c10.617-11.116,15.747-27.37,13.129-42.549 c-5.236,1.77-10.223,4.252-14.824,7.313c-4.13,2.747-7.948,5.961-11.374,9.55C67.425,24.863,61.344,10.451,50.991,0 c-4.015,5.451-7.281,11.444-9.753,17.744c-3.579,9.122-5.501,18.893-5.669,28.691c-4.79-7.979-11.256-14.955-18.858-20.322 c-4.514-3.187-9.431-5.806-14.616-7.72c-3.361,16.717,2.731,35.015,15.445,46.379c0.369,0.33,0.745,0.654,1.126,0.972 c-2.359,0.411-4.689,0.983-6.969,1.714C7.582,68.775,3.634,70.61,0,72.945c8.85,9.963,23.134,14.771,36.208,12.186 c3.524-0.697,7.002-1.919,9.887-4.057c0.073-0.054,0.145-0.111,0.218-0.167c-0.987,5.662-2.714,11.136-5.104,16.221l7.509,2.806 c1.698-5.797,2.631-11.748,2.814-17.669c0.107,0.076,0.215,0.152,0.324,0.225c3.142,2.114,6.863,3.232,10.607,3.796 C76.352,88.379,91.161,82.628,100,71.71C96.061,69.427,91.816,67.684,87.422,66.495z" fill="#869ec9" transform="scale(0.6558782625492601)"></path>
</g><g transform="translate(32.232147275396805 -100) rotate(0)">
  <animateTransform attributeName="transform" type="translate" keyTimes="0;1" values="32.232147275396805 -100;1839.6512540538683 1530" dur="12.5s" repeatCount="indefinite" begin="-2.5307030786631266s"></animateTransform>
  <animateTransform attributeName="transform" type="rotate" keyTimes="0;1" begin="-2.5307030786631266s" values="0 50 50;98.18917816964816 50 50" dur="12.5s" repeatCount="indefinite" additive="sum"></animateTransform>
  <path d="M87.422,66.495c-2.009-0.544-4.049-0.97-6.107-1.283c10.617-11.116,15.747-27.37,13.129-42.549 c-5.236,1.77-10.223,4.252-14.824,7.313c-4.13,2.747-7.948,5.961-11.374,9.55C67.425,24.863,61.344,10.451,50.991,0 c-4.015,5.451-7.281,11.444-9.753,17.744c-3.579,9.122-5.501,18.893-5.669,28.691c-4.79-7.979-11.256-14.955-18.858-20.322 c-4.514-3.187-9.431-5.806-14.616-7.72c-3.361,16.717,2.731,35.015,15.445,46.379c0.369,0.33,0.745,0.654,1.126,0.972 c-2.359,0.411-4.689,0.983-6.969,1.714C7.582,68.775,3.634,70.61,0,72.945c8.85,9.963,23.134,14.771,36.208,12.186 c3.524-0.697,7.002-1.919,9.887-4.057c0.073-0.054,0.145-0.111,0.218-0.167c-0.987,5.662-2.714,11.136-5.104,16.221l7.509,2.806 c1.698-5.797,2.631-11.748,2.814-17.669c0.107,0.076,0.215,0.152,0.324,0.225c3.142,2.114,6.863,3.232,10.607,3.796 C76.352,88.379,91.161,82.628,100,71.71C96.061,69.427,91.816,67.684,87.422,66.495z" fill="#87434d" transform="scale(0.6069918330037325)"></path>
</g><g transform="translate(-100 376.905387290368) rotate(0)">
  <animateTransform attributeName="transform" type="translate" keyTimes="0;1" values="-100 376.905387290368;1225.675831451601 1530" dur="12.5s" repeatCount="indefinite" begin="-5.068869689877192s"></animateTransform>
  <animateTransform attributeName="transform" type="rotate" keyTimes="0;1" begin="-5.068869689877192s" values="0 50 50;420.43224868099554 50 50" dur="12.5s" repeatCount="indefinite" additive="sum"></animateTransform>
  <path d="M87.422,66.495c-2.009-0.544-4.049-0.97-6.107-1.283c10.617-11.116,15.747-27.37,13.129-42.549 c-5.236,1.77-10.223,4.252-14.824,7.313c-4.13,2.747-7.948,5.961-11.374,9.55C67.425,24.863,61.344,10.451,50.991,0 c-4.015,5.451-7.281,11.444-9.753,17.744c-3.579,9.122-5.501,18.893-5.669,28.691c-4.79-7.979-11.256-14.955-18.858-20.322 c-4.514-3.187-9.431-5.806-14.616-7.72c-3.361,16.717,2.731,35.015,15.445,46.379c0.369,0.33,0.745,0.654,1.126,0.972 c-2.359,0.411-4.689,0.983-6.969,1.714C7.582,68.775,3.634,70.61,0,72.945c8.85,9.963,23.134,14.771,36.208,12.186 c3.524-0.697,7.002-1.919,9.887-4.057c0.073-0.054,0.145-0.111,0.218-0.167c-0.987,5.662-2.714,11.136-5.104,16.221l7.509,2.806 c1.698-5.797,2.631-11.748,2.814-17.669c0.107,0.076,0.215,0.152,0.324,0.225c3.142,2.114,6.863,3.232,10.607,3.796 C76.352,88.379,91.161,82.628,100,71.71C96.061,69.427,91.816,67.684,87.422,66.495z" fill="#869ec9" transform="scale(1.0242514937949565)"></path>
</g><g transform="translate(-100 145.90707549704732) rotate(0)">
  <animateTransform attributeName="transform" type="translate" keyTimes="0;1" values="-100 145.90707549704732;1540 1343.870660186173" dur="12.5s" repeatCount="indefinite" begin="-0.5603424712413763s"></animateTransform>
  <animateTransform attributeName="transform" type="rotate" keyTimes="0;1" begin="-0.5603424712413763s" values="0 50 50;455.10733358920356 50 50" dur="12.5s" repeatCount="indefinite" additive="sum"></animateTransform>
  <path d="M87.422,66.495c-2.009-0.544-4.049-0.97-6.107-1.283c10.617-11.116,15.747-27.37,13.129-42.549 c-5.236,1.77-10.223,4.252-14.824,7.313c-4.13,2.747-7.948,5.961-11.374,9.55C67.425,24.863,61.344,10.451,50.991,0 c-4.015,5.451-7.281,11.444-9.753,17.744c-3.579,9.122-5.501,18.893-5.669,28.691c-4.79-7.979-11.256-14.955-18.858-20.322 c-4.514-3.187-9.431-5.806-14.616-7.72c-3.361,16.717,2.731,35.015,15.445,46.379c0.369,0.33,0.745,0.654,1.126,0.972 c-2.359,0.411-4.689,0.983-6.969,1.714C7.582,68.775,3.634,70.61,0,72.945c8.85,9.963,23.134,14.771,36.208,12.186 c3.524-0.697,7.002-1.919,9.887-4.057c0.073-0.054,0.145-0.111,0.218-0.167c-0.987,5.662-2.714,11.136-5.104,16.221l7.509,2.806 c1.698-5.797,2.631-11.748,2.814-17.669c0.107,0.076,0.215,0.152,0.324,0.225c3.142,2.114,6.863,3.232,10.607,3.796 C76.352,88.379,91.161,82.628,100,71.71C96.061,69.427,91.816,67.684,87.422,66.495z" fill="#201c5d" transform="scale(0.537693350134969)"></path>
</g><g transform="translate(-100 540.8487466655245) rotate(0)">
  <animateTransform attributeName="transform" type="translate" keyTimes="0;1" values="-100 540.8487466655245;1840.8651012457156 1530" dur="12.5s" repeatCount="indefinite" begin="-3.2530512557194884s"></animateTransform>
  <animateTransform attributeName="transform" type="rotate" keyTimes="0;1" begin="-3.2530512557194884s" values="0 50 50;490.1826428118275 50 50" dur="12.5s" repeatCount="indefinite" additive="sum"></animateTransform>
  <path d="M87.422,66.495c-2.009-0.544-4.049-0.97-6.107-1.283c10.617-11.116,15.747-27.37,13.129-42.549 c-5.236,1.77-10.223,4.252-14.824,7.313c-4.13,2.747-7.948,5.961-11.374,9.55C67.425,24.863,61.344,10.451,50.991,0 c-4.015,5.451-7.281,11.444-9.753,17.744c-3.579,9.122-5.501,18.893-5.669,28.691c-4.79-7.979-11.256-14.955-18.858-20.322 c-4.514-3.187-9.431-5.806-14.616-7.72c-3.361,16.717,2.731,35.015,15.445,46.379c0.369,0.33,0.745,0.654,1.126,0.972 c-2.359,0.411-4.689,0.983-6.969,1.714C7.582,68.775,3.634,70.61,0,72.945c8.85,9.963,23.134,14.771,36.208,12.186 c3.524-0.697,7.002-1.919,9.887-4.057c0.073-0.054,0.145-0.111,0.218-0.167c-0.987,5.662-2.714,11.136-5.104,16.221l7.509,2.806 c1.698-5.797,2.631-11.748,2.814-17.669c0.107,0.076,0.215,0.152,0.324,0.225c3.142,2.114,6.863,3.232,10.607,3.796 C76.352,88.379,91.161,82.628,100,71.71C96.061,69.427,91.816,67.684,87.422,66.495z" fill="#552b2f" transform="scale(0.8214721661401447)"></path>
</g><g transform="translate(400.2937387832878 -100) rotate(0)">
  <animateTransform attributeName="transform" type="translate" keyTimes="0;1" values="400.2937387832878 -100;1540 1177.463480984478" dur="12.5s" repeatCount="indefinite" begin="-3.778190793177111s"></animateTransform>
  <animateTransform attributeName="transform" type="rotate" keyTimes="0;1" begin="-3.778190793177111s" values="0 50 50;902.2821639649912 50 50" dur="12.5s" repeatCount="indefinite" additive="sum"></animateTransform>
  <path d="M87.422,66.495c-2.009-0.544-4.049-0.97-6.107-1.283c10.617-11.116,15.747-27.37,13.129-42.549 c-5.236,1.77-10.223,4.252-14.824,7.313c-4.13,2.747-7.948,5.961-11.374,9.55C67.425,24.863,61.344,10.451,50.991,0 c-4.015,5.451-7.281,11.444-9.753,17.744c-3.579,9.122-5.501,18.893-5.669,28.691c-4.79-7.979-11.256-14.955-18.858-20.322 c-4.514-3.187-9.431-5.806-14.616-7.72c-3.361,16.717,2.731,35.015,15.445,46.379c0.369,0.33,0.745,0.654,1.126,0.972 c-2.359,0.411-4.689,0.983-6.969,1.714C7.582,68.775,3.634,70.61,0,72.945c8.85,9.963,23.134,14.771,36.208,12.186 c3.524-0.697,7.002-1.919,9.887-4.057c0.073-0.054,0.145-0.111,0.218-0.167c-0.987,5.662-2.714,11.136-5.104,16.221l7.509,2.806 c1.698-5.797,2.631-11.748,2.814-17.669c0.107,0.076,0.215,0.152,0.324,0.225c3.142,2.114,6.863,3.232,10.607,3.796 C76.352,88.379,91.161,82.628,100,71.71C96.061,69.427,91.816,67.684,87.422,66.495z" fill="#576589" transform="scale(0.7686446574720049)"></path>
</g><g transform="translate(-100 371.1389696892425) rotate(0)">
  <animateTransform attributeName="transform" type="translate" keyTimes="0;1" values="-100 371.1389696892425;1540 2031.4589042108598" dur="12.5s" repeatCount="indefinite" begin="-4.719197366651409s"></animateTransform>
  <animateTransform attributeName="transform" type="rotate" keyTimes="0;1" begin="-4.719197366651409s" values="0 50 50;770.6914502562745 50 50" dur="12.5s" repeatCount="indefinite" additive="sum"></animateTransform>
  <path d="M87.422,66.495c-2.009-0.544-4.049-0.97-6.107-1.283c10.617-11.116,15.747-27.37,13.129-42.549 c-5.236,1.77-10.223,4.252-14.824,7.313c-4.13,2.747-7.948,5.961-11.374,9.55C67.425,24.863,61.344,10.451,50.991,0 c-4.015,5.451-7.281,11.444-9.753,17.744c-3.579,9.122-5.501,18.893-5.669,28.691c-4.79-7.979-11.256-14.955-18.858-20.322 c-4.514-3.187-9.431-5.806-14.616-7.72c-3.361,16.717,2.731,35.015,15.445,46.379c0.369,0.33,0.745,0.654,1.126,0.972 c-2.359,0.411-4.689,0.983-6.969,1.714C7.582,68.775,3.634,70.61,0,72.945c8.85,9.963,23.134,14.771,36.208,12.186 c3.524-0.697,7.002-1.919,9.887-4.057c0.073-0.054,0.145-0.111,0.218-0.167c-0.987,5.662-2.714,11.136-5.104,16.221l7.509,2.806 c1.698-5.797,2.631-11.748,2.814-17.669c0.107,0.076,0.215,0.152,0.324,0.225c3.142,2.114,6.863,3.232,10.607,3.796 C76.352,88.379,91.161,82.628,100,71.71C96.061,69.427,91.816,67.684,87.422,66.495z" fill="#87434d" transform="scale(0.7403996734387351)"></path>
</g><g transform="translate(-100 164.852903299876) rotate(0)">
  <animateTransform attributeName="transform" type="translate" keyTimes="0;1" values="-100 164.852903299876;2006.5187624771415 1530" dur="12.5s" repeatCount="indefinite" begin="-5.392030958011038s"></animateTransform>
  <animateTransform attributeName="transform" type="rotate" keyTimes="0;1" begin="-5.392030958011038s" values="0 50 50;265.4184602166807 50 50" dur="12.5s" repeatCount="indefinite" additive="sum"></animateTransform>
  <path d="M87.422,66.495c-2.009-0.544-4.049-0.97-6.107-1.283c10.617-11.116,15.747-27.37,13.129-42.549 c-5.236,1.77-10.223,4.252-14.824,7.313c-4.13,2.747-7.948,5.961-11.374,9.55C67.425,24.863,61.344,10.451,50.991,0 c-4.015,5.451-7.281,11.444-9.753,17.744c-3.579,9.122-5.501,18.893-5.669,28.691c-4.79-7.979-11.256-14.955-18.858-20.322 c-4.514-3.187-9.431-5.806-14.616-7.72c-3.361,16.717,2.731,35.015,15.445,46.379c0.369,0.33,0.745,0.654,1.126,0.972 c-2.359,0.411-4.689,0.983-6.969,1.714C7.582,68.775,3.634,70.61,0,72.945c8.85,9.963,23.134,14.771,36.208,12.186 c3.524-0.697,7.002-1.919,9.887-4.057c0.073-0.054,0.145-0.111,0.218-0.167c-0.987,5.662-2.714,11.136-5.104,16.221l7.509,2.806 c1.698-5.797,2.631-11.748,2.814-17.669c0.107,0.076,0.215,0.152,0.324,0.225c3.142,2.114,6.863,3.232,10.607,3.796 C76.352,88.379,91.161,82.628,100,71.71C96.061,69.427,91.816,67.684,87.422,66.495z" fill="#576589" transform="scale(1.061153633166904)"></path>
</g><g transform="translate(-100 20.534916228016815) rotate(0)">
  <animateTransform attributeName="transform" type="translate" keyTimes="0;1" values="-100 20.534916228016815;685.7163940292468 1530" dur="12.5s" repeatCount="indefinite" begin="-4.98822110628176s"></animateTransform>
  <animateTransform attributeName="transform" type="rotate" keyTimes="0;1" begin="-4.98822110628176s" values="0 50 50;781.4361362108692 50 50" dur="12.5s" repeatCount="indefinite" additive="sum"></animateTransform>
  <path d="M87.422,66.495c-2.009-0.544-4.049-0.97-6.107-1.283c10.617-11.116,15.747-27.37,13.129-42.549 c-5.236,1.77-10.223,4.252-14.824,7.313c-4.13,2.747-7.948,5.961-11.374,9.55C67.425,24.863,61.344,10.451,50.991,0 c-4.015,5.451-7.281,11.444-9.753,17.744c-3.579,9.122-5.501,18.893-5.669,28.691c-4.79-7.979-11.256-14.955-18.858-20.322 c-4.514-3.187-9.431-5.806-14.616-7.72c-3.361,16.717,2.731,35.015,15.445,46.379c0.369,0.33,0.745,0.654,1.126,0.972 c-2.359,0.411-4.689,0.983-6.969,1.714C7.582,68.775,3.634,70.61,0,72.945c8.85,9.963,23.134,14.771,36.208,12.186 c3.524-0.697,7.002-1.919,9.887-4.057c0.073-0.054,0.145-0.111,0.218-0.167c-0.987,5.662-2.714,11.136-5.104,16.221l7.509,2.806 c1.698-5.797,2.631-11.748,2.814-17.669c0.107,0.076,0.215,0.152,0.324,0.225c3.142,2.114,6.863,3.232,10.607,3.796 C76.352,88.379,91.161,82.628,100,71.71C96.061,69.427,91.816,67.684,87.422,66.495z" fill="#552b2f" transform="scale(0.7093028930198066)"></path>
</g><g transform="translate(-100 335.5809320726578) rotate(0)">
  <animateTransform attributeName="transform" type="translate" keyTimes="0;1" values="-100 335.5809320726578;1540 1774.4703309877632" dur="12.5s" repeatCount="indefinite" begin="-11.048089607487062s"></animateTransform>
  <animateTransform attributeName="transform" type="rotate" keyTimes="0;1" begin="-11.048089607487062s" values="0 50 50;1065.4375433770465 50 50" dur="12.5s" repeatCount="indefinite" additive="sum"></animateTransform>
  <path d="M87.422,66.495c-2.009-0.544-4.049-0.97-6.107-1.283c10.617-11.116,15.747-27.37,13.129-42.549 c-5.236,1.77-10.223,4.252-14.824,7.313c-4.13,2.747-7.948,5.961-11.374,9.55C67.425,24.863,61.344,10.451,50.991,0 c-4.015,5.451-7.281,11.444-9.753,17.744c-3.579,9.122-5.501,18.893-5.669,28.691c-4.79-7.979-11.256-14.955-18.858-20.322 c-4.514-3.187-9.431-5.806-14.616-7.72c-3.361,16.717,2.731,35.015,15.445,46.379c0.369,0.33,0.745,0.654,1.126,0.972 c-2.359,0.411-4.689,0.983-6.969,1.714C7.582,68.775,3.634,70.61,0,72.945c8.85,9.963,23.134,14.771,36.208,12.186 c3.524-0.697,7.002-1.919,9.887-4.057c0.073-0.054,0.145-0.111,0.218-0.167c-0.987,5.662-2.714,11.136-5.104,16.221l7.509,2.806 c1.698-5.797,2.631-11.748,2.814-17.669c0.107,0.076,0.215,0.152,0.324,0.225c3.142,2.114,6.863,3.232,10.607,3.796 C76.352,88.379,91.161,82.628,100,71.71C96.061,69.427,91.816,67.684,87.422,66.495z" fill="#87434d" transform="scale(0.7679140981073895)"></path>
</g><g transform="translate(-100 23.70559664218076) rotate(0)">
  <animateTransform attributeName="transform" type="translate" keyTimes="0;1" values="-100 23.70559664218076;1540 973.5390517985662" dur="12.5s" repeatCount="indefinite" begin="-4.958470629864683s"></animateTransform>
  <animateTransform attributeName="transform" type="rotate" keyTimes="0;1" begin="-4.958470629864683s" values="0 50 50;232.20724594067565 50 50" dur="12.5s" repeatCount="indefinite" additive="sum"></animateTransform>
  <path d="M87.422,66.495c-2.009-0.544-4.049-0.97-6.107-1.283c10.617-11.116,15.747-27.37,13.129-42.549 c-5.236,1.77-10.223,4.252-14.824,7.313c-4.13,2.747-7.948,5.961-11.374,9.55C67.425,24.863,61.344,10.451,50.991,0 c-4.015,5.451-7.281,11.444-9.753,17.744c-3.579,9.122-5.501,18.893-5.669,28.691c-4.79-7.979-11.256-14.955-18.858-20.322 c-4.514-3.187-9.431-5.806-14.616-7.72c-3.361,16.717,2.731,35.015,15.445,46.379c0.369,0.33,0.745,0.654,1.126,0.972 c-2.359,0.411-4.689,0.983-6.969,1.714C7.582,68.775,3.634,70.61,0,72.945c8.85,9.963,23.134,14.771,36.208,12.186 c3.524-0.697,7.002-1.919,9.887-4.057c0.073-0.054,0.145-0.111,0.218-0.167c-0.987,5.662-2.714,11.136-5.104,16.221l7.509,2.806 c1.698-5.797,2.631-11.748,2.814-17.669c0.107,0.076,0.215,0.152,0.324,0.225c3.142,2.114,6.863,3.232,10.607,3.796 C76.352,88.379,91.161,82.628,100,71.71C96.061,69.427,91.816,67.684,87.422,66.495z" fill="#87434d" transform="scale(0.5530755925708415)"></path>
</g><g transform="translate(1310.5950670901711 -100) rotate(0)">
  <animateTransform attributeName="transform" type="translate" keyTimes="0;1" values="1310.5950670901711 -100;3162.584770879266 1530" dur="12.5s" repeatCount="indefinite" begin="-12.268068868084114s"></animateTransform>
  <animateTransform attributeName="transform" type="rotate" keyTimes="0;1" begin="-12.268068868084114s" values="0 50 50;73.43861421704943 50 50" dur="12.5s" repeatCount="indefinite" additive="sum"></animateTransform>
  <path d="M87.422,66.495c-2.009-0.544-4.049-0.97-6.107-1.283c10.617-11.116,15.747-27.37,13.129-42.549 c-5.236,1.77-10.223,4.252-14.824,7.313c-4.13,2.747-7.948,5.961-11.374,9.55C67.425,24.863,61.344,10.451,50.991,0 c-4.015,5.451-7.281,11.444-9.753,17.744c-3.579,9.122-5.501,18.893-5.669,28.691c-4.79-7.979-11.256-14.955-18.858-20.322 c-4.514-3.187-9.431-5.806-14.616-7.72c-3.361,16.717,2.731,35.015,15.445,46.379c0.369,0.33,0.745,0.654,1.126,0.972 c-2.359,0.411-4.689,0.983-6.969,1.714C7.582,68.775,3.634,70.61,0,72.945c8.85,9.963,23.134,14.771,36.208,12.186 c3.524-0.697,7.002-1.919,9.887-4.057c0.073-0.054,0.145-0.111,0.218-0.167c-0.987,5.662-2.714,11.136-5.104,16.221l7.509,2.806 c1.698-5.797,2.631-11.748,2.814-17.669c0.107,0.076,0.215,0.152,0.324,0.225c3.142,2.114,6.863,3.232,10.607,3.796 C76.352,88.379,91.161,82.628,100,71.71C96.061,69.427,91.816,67.684,87.422,66.495z" fill="#552b2f" transform="scale(0.6721184056751943)"></path>
</g><g transform="translate(721.4756454540097 -100) rotate(0)">
  <animateTransform attributeName="transform" type="translate" keyTimes="0;1" values="721.4756454540097 -100;2575.8862185283338 1530" dur="12.5s" repeatCount="indefinite" begin="-6.26196871491449s"></animateTransform>
  <animateTransform attributeName="transform" type="rotate" keyTimes="0;1" begin="-6.26196871491449s" values="0 50 50;954.2728485209103 50 50" dur="12.5s" repeatCount="indefinite" additive="sum"></animateTransform>
  <path d="M87.422,66.495c-2.009-0.544-4.049-0.97-6.107-1.283c10.617-11.116,15.747-27.37,13.129-42.549 c-5.236,1.77-10.223,4.252-14.824,7.313c-4.13,2.747-7.948,5.961-11.374,9.55C67.425,24.863,61.344,10.451,50.991,0 c-4.015,5.451-7.281,11.444-9.753,17.744c-3.579,9.122-5.501,18.893-5.669,28.691c-4.79-7.979-11.256-14.955-18.858-20.322 c-4.514-3.187-9.431-5.806-14.616-7.72c-3.361,16.717,2.731,35.015,15.445,46.379c0.369,0.33,0.745,0.654,1.126,0.972 c-2.359,0.411-4.689,0.983-6.969,1.714C7.582,68.775,3.634,70.61,0,72.945c8.85,9.963,23.134,14.771,36.208,12.186 c3.524-0.697,7.002-1.919,9.887-4.057c0.073-0.054,0.145-0.111,0.218-0.167c-0.987,5.662-2.714,11.136-5.104,16.221l7.509,2.806 c1.698-5.797,2.631-11.748,2.814-17.669c0.107,0.076,0.215,0.152,0.324,0.225c3.142,2.114,6.863,3.232,10.607,3.796 C76.352,88.379,91.161,82.628,100,71.71C96.061,69.427,91.816,67.684,87.422,66.495z" fill="#869ec9" transform="scale(0.7690283573798802)"></path>
</g><g transform="translate(-100 477.29478850296573) rotate(0)">
  <animateTransform attributeName="transform" type="translate" keyTimes="0;1" values="-100 477.29478850296573;1816.936751519228 1530" dur="12.5s" repeatCount="indefinite" begin="-4.533252390719397s"></animateTransform>
  <animateTransform attributeName="transform" type="rotate" keyTimes="0;1" begin="-4.533252390719397s" values="0 50 50;435.754292361706 50 50" dur="12.5s" repeatCount="indefinite" additive="sum"></animateTransform>
  <path d="M87.422,66.495c-2.009-0.544-4.049-0.97-6.107-1.283c10.617-11.116,15.747-27.37,13.129-42.549 c-5.236,1.77-10.223,4.252-14.824,7.313c-4.13,2.747-7.948,5.961-11.374,9.55C67.425,24.863,61.344,10.451,50.991,0 c-4.015,5.451-7.281,11.444-9.753,17.744c-3.579,9.122-5.501,18.893-5.669,28.691c-4.79-7.979-11.256-14.955-18.858-20.322 c-4.514-3.187-9.431-5.806-14.616-7.72c-3.361,16.717,2.731,35.015,15.445,46.379c0.369,0.33,0.745,0.654,1.126,0.972 c-2.359,0.411-4.689,0.983-6.969,1.714C7.582,68.775,3.634,70.61,0,72.945c8.85,9.963,23.134,14.771,36.208,12.186 c3.524-0.697,7.002-1.919,9.887-4.057c0.073-0.054,0.145-0.111,0.218-0.167c-0.987,5.662-2.714,11.136-5.104,16.221l7.509,2.806 c1.698-5.797,2.631-11.748,2.814-17.669c0.107,0.076,0.215,0.152,0.324,0.225c3.142,2.114,6.863,3.232,10.607,3.796 C76.352,88.379,91.161,82.628,100,71.71C96.061,69.427,91.816,67.684,87.422,66.495z" fill="#9fbae7" transform="scale(0.5327813948935415)"></path>
</g><g transform="translate(1434.9401969697594 -100) rotate(0)">
  <animateTransform attributeName="transform" type="translate" keyTimes="0;1" values="1434.9401969697594 -100;3017.730004641071 1530" dur="12.5s" repeatCount="indefinite" begin="-4.63893939613739s"></animateTransform>
  <animateTransform attributeName="transform" type="rotate" keyTimes="0;1" begin="-4.63893939613739s" values="0 50 50;411.8824096973121 50 50" dur="12.5s" repeatCount="indefinite" additive="sum"></animateTransform>
  <path d="M87.422,66.495c-2.009-0.544-4.049-0.97-6.107-1.283c10.617-11.116,15.747-27.37,13.129-42.549 c-5.236,1.77-10.223,4.252-14.824,7.313c-4.13,2.747-7.948,5.961-11.374,9.55C67.425,24.863,61.344,10.451,50.991,0 c-4.015,5.451-7.281,11.444-9.753,17.744c-3.579,9.122-5.501,18.893-5.669,28.691c-4.79-7.979-11.256-14.955-18.858-20.322 c-4.514-3.187-9.431-5.806-14.616-7.72c-3.361,16.717,2.731,35.015,15.445,46.379c0.369,0.33,0.745,0.654,1.126,0.972 c-2.359,0.411-4.689,0.983-6.969,1.714C7.582,68.775,3.634,70.61,0,72.945c8.85,9.963,23.134,14.771,36.208,12.186 c3.524-0.697,7.002-1.919,9.887-4.057c0.073-0.054,0.145-0.111,0.218-0.167c-0.987,5.662-2.714,11.136-5.104,16.221l7.509,2.806 c1.698-5.797,2.631-11.748,2.814-17.669c0.107,0.076,0.215,0.152,0.324,0.225c3.142,2.114,6.863,3.232,10.607,3.796 C76.352,88.379,91.161,82.628,100,71.71C96.061,69.427,91.816,67.684,87.422,66.495z" fill="#201c5d" transform="scale(0.9435219327380928)"></path>
</g><g transform="translate(-100 551.0606021991383) rotate(0)">
  <animateTransform attributeName="transform" type="translate" keyTimes="0;1" values="-100 551.0606021991383;1521.6262476109102 1530" dur="12.5s" repeatCount="indefinite" begin="-11.887090802905062s"></animateTransform>
  <animateTransform attributeName="transform" type="rotate" keyTimes="0;1" begin="-11.887090802905062s" values="0 50 50;944.9737089039533 50 50" dur="12.5s" repeatCount="indefinite" additive="sum"></animateTransform>
  <path d="M87.422,66.495c-2.009-0.544-4.049-0.97-6.107-1.283c10.617-11.116,15.747-27.37,13.129-42.549 c-5.236,1.77-10.223,4.252-14.824,7.313c-4.13,2.747-7.948,5.961-11.374,9.55C67.425,24.863,61.344,10.451,50.991,0 c-4.015,5.451-7.281,11.444-9.753,17.744c-3.579,9.122-5.501,18.893-5.669,28.691c-4.79-7.979-11.256-14.955-18.858-20.322 c-4.514-3.187-9.431-5.806-14.616-7.72c-3.361,16.717,2.731,35.015,15.445,46.379c0.369,0.33,0.745,0.654,1.126,0.972 c-2.359,0.411-4.689,0.983-6.969,1.714C7.582,68.775,3.634,70.61,0,72.945c8.85,9.963,23.134,14.771,36.208,12.186 c3.524-0.697,7.002-1.919,9.887-4.057c0.073-0.054,0.145-0.111,0.218-0.167c-0.987,5.662-2.714,11.136-5.104,16.221l7.509,2.806 c1.698-5.797,2.631-11.748,2.814-17.669c0.107,0.076,0.215,0.152,0.324,0.225c3.142,2.114,6.863,3.232,10.607,3.796 C76.352,88.379,91.161,82.628,100,71.71C96.061,69.427,91.816,67.684,87.422,66.495z" fill="#576589" transform="scale(0.9330094827139919)"></path>
</g><g transform="translate(-100 166.9676176349741) rotate(0)">
  <animateTransform attributeName="transform" type="translate" keyTimes="0;1" values="-100 166.9676176349741;1636.212184929419 1530" dur="12.5s" repeatCount="indefinite" begin="-8.628454015624893s"></animateTransform>
  <animateTransform attributeName="transform" type="rotate" keyTimes="0;1" begin="-8.628454015624893s" values="0 50 50;442.593517866627 50 50" dur="12.5s" repeatCount="indefinite" additive="sum"></animateTransform>
  <path d="M87.422,66.495c-2.009-0.544-4.049-0.97-6.107-1.283c10.617-11.116,15.747-27.37,13.129-42.549 c-5.236,1.77-10.223,4.252-14.824,7.313c-4.13,2.747-7.948,5.961-11.374,9.55C67.425,24.863,61.344,10.451,50.991,0 c-4.015,5.451-7.281,11.444-9.753,17.744c-3.579,9.122-5.501,18.893-5.669,28.691c-4.79-7.979-11.256-14.955-18.858-20.322 c-4.514-3.187-9.431-5.806-14.616-7.72c-3.361,16.717,2.731,35.015,15.445,46.379c0.369,0.33,0.745,0.654,1.126,0.972 c-2.359,0.411-4.689,0.983-6.969,1.714C7.582,68.775,3.634,70.61,0,72.945c8.85,9.963,23.134,14.771,36.208,12.186 c3.524-0.697,7.002-1.919,9.887-4.057c0.073-0.054,0.145-0.111,0.218-0.167c-0.987,5.662-2.714,11.136-5.104,16.221l7.509,2.806 c1.698-5.797,2.631-11.748,2.814-17.669c0.107,0.076,0.215,0.152,0.324,0.225c3.142,2.114,6.863,3.232,10.607,3.796 C76.352,88.379,91.161,82.628,100,71.71C96.061,69.427,91.816,67.684,87.422,66.495z" fill="#87434d" transform="scale(0.8803202487541437)"></path>
</g><g transform="translate(878.6262694454297 -100) rotate(0)">
  <animateTransform attributeName="transform" type="translate" keyTimes="0;1" values="878.6262694454297 -100;2838.710724993481 1530" dur="12.5s" repeatCount="indefinite" begin="-5.913919314263599s"></animateTransform>
  <animateTransform attributeName="transform" type="rotate" keyTimes="0;1" begin="-5.913919314263599s" values="0 50 50;1.585340799495416 50 50" dur="12.5s" repeatCount="indefinite" additive="sum"></animateTransform>
  <path d="M87.422,66.495c-2.009-0.544-4.049-0.97-6.107-1.283c10.617-11.116,15.747-27.37,13.129-42.549 c-5.236,1.77-10.223,4.252-14.824,7.313c-4.13,2.747-7.948,5.961-11.374,9.55C67.425,24.863,61.344,10.451,50.991,0 c-4.015,5.451-7.281,11.444-9.753,17.744c-3.579,9.122-5.501,18.893-5.669,28.691c-4.79-7.979-11.256-14.955-18.858-20.322 c-4.514-3.187-9.431-5.806-14.616-7.72c-3.361,16.717,2.731,35.015,15.445,46.379c0.369,0.33,0.745,0.654,1.126,0.972 c-2.359,0.411-4.689,0.983-6.969,1.714C7.582,68.775,3.634,70.61,0,72.945c8.85,9.963,23.134,14.771,36.208,12.186 c3.524-0.697,7.002-1.919,9.887-4.057c0.073-0.054,0.145-0.111,0.218-0.167c-0.987,5.662-2.714,11.136-5.104,16.221l7.509,2.806 c1.698-5.797,2.631-11.748,2.814-17.669c0.107,0.076,0.215,0.152,0.324,0.225c3.142,2.114,6.863,3.232,10.607,3.796 C76.352,88.379,91.161,82.628,100,71.71C96.061,69.427,91.816,67.684,87.422,66.495z" fill="#87434d" transform="scale(0.7416750716955884)"></path>
</g><g transform="translate(846.0812912269331 -100) rotate(0)">
  <animateTransform attributeName="transform" type="translate" keyTimes="0;1" values="846.0812912269331 -100;2179.812124178525 1530" dur="12.5s" repeatCount="indefinite" begin="-4.376287847427343s"></animateTransform>
  <animateTransform attributeName="transform" type="rotate" keyTimes="0;1" begin="-4.376287847427343s" values="0 50 50;706.9150129509883 50 50" dur="12.5s" repeatCount="indefinite" additive="sum"></animateTransform>
  <path d="M87.422,66.495c-2.009-0.544-4.049-0.97-6.107-1.283c10.617-11.116,15.747-27.37,13.129-42.549 c-5.236,1.77-10.223,4.252-14.824,7.313c-4.13,2.747-7.948,5.961-11.374,9.55C67.425,24.863,61.344,10.451,50.991,0 c-4.015,5.451-7.281,11.444-9.753,17.744c-3.579,9.122-5.501,18.893-5.669,28.691c-4.79-7.979-11.256-14.955-18.858-20.322 c-4.514-3.187-9.431-5.806-14.616-7.72c-3.361,16.717,2.731,35.015,15.445,46.379c0.369,0.33,0.745,0.654,1.126,0.972 c-2.359,0.411-4.689,0.983-6.969,1.714C7.582,68.775,3.634,70.61,0,72.945c8.85,9.963,23.134,14.771,36.208,12.186 c3.524-0.697,7.002-1.919,9.887-4.057c0.073-0.054,0.145-0.111,0.218-0.167c-0.987,5.662-2.714,11.136-5.104,16.221l7.509,2.806 c1.698-5.797,2.631-11.748,2.814-17.669c0.107,0.076,0.215,0.152,0.324,0.225c3.142,2.114,6.863,3.232,10.607,3.796 C76.352,88.379,91.161,82.628,100,71.71C96.061,69.427,91.816,67.684,87.422,66.495z" fill="#9fbae7" transform="scale(1.083725079451531)"></path>
</g><g transform="translate(-100 481.88258725899095) rotate(0)">
  <animateTransform attributeName="transform" type="translate" keyTimes="0;1" values="-100 481.88258725899095;1540 2353.480219576665" dur="12.5s" repeatCount="indefinite" begin="-9.576364823117805s"></animateTransform>
  <animateTransform attributeName="transform" type="rotate" keyTimes="0;1" begin="-9.576364823117805s" values="0 50 50;46.380588363917035 50 50" dur="12.5s" repeatCount="indefinite" additive="sum"></animateTransform>
  <path d="M87.422,66.495c-2.009-0.544-4.049-0.97-6.107-1.283c10.617-11.116,15.747-27.37,13.129-42.549 c-5.236,1.77-10.223,4.252-14.824,7.313c-4.13,2.747-7.948,5.961-11.374,9.55C67.425,24.863,61.344,10.451,50.991,0 c-4.015,5.451-7.281,11.444-9.753,17.744c-3.579,9.122-5.501,18.893-5.669,28.691c-4.79-7.979-11.256-14.955-18.858-20.322 c-4.514-3.187-9.431-5.806-14.616-7.72c-3.361,16.717,2.731,35.015,15.445,46.379c0.369,0.33,0.745,0.654,1.126,0.972 c-2.359,0.411-4.689,0.983-6.969,1.714C7.582,68.775,3.634,70.61,0,72.945c8.85,9.963,23.134,14.771,36.208,12.186 c3.524-0.697,7.002-1.919,9.887-4.057c0.073-0.054,0.145-0.111,0.218-0.167c-0.987,5.662-2.714,11.136-5.104,16.221l7.509,2.806 c1.698-5.797,2.631-11.748,2.814-17.669c0.107,0.076,0.215,0.152,0.324,0.225c3.142,2.114,6.863,3.232,10.607,3.796 C76.352,88.379,91.161,82.628,100,71.71C96.061,69.427,91.816,67.684,87.422,66.495z" fill="#552b2f" transform="scale(0.7495338326685906)"></path>
</g><g transform="translate(1211.1454872497075 -100) rotate(0)">
  <animateTransform attributeName="transform" type="translate" keyTimes="0;1" values="1211.1454872497075 -100;1540 1855.4543563047769" dur="12.5s" repeatCount="indefinite" begin="-7.082693847295735s"></animateTransform>
  <animateTransform attributeName="transform" type="rotate" keyTimes="0;1" begin="-7.082693847295735s" values="0 50 50;219.65092624331632 50 50" dur="12.5s" repeatCount="indefinite" additive="sum"></animateTransform>
  <path d="M87.422,66.495c-2.009-0.544-4.049-0.97-6.107-1.283c10.617-11.116,15.747-27.37,13.129-42.549 c-5.236,1.77-10.223,4.252-14.824,7.313c-4.13,2.747-7.948,5.961-11.374,9.55C67.425,24.863,61.344,10.451,50.991,0 c-4.015,5.451-7.281,11.444-9.753,17.744c-3.579,9.122-5.501,18.893-5.669,28.691c-4.79-7.979-11.256-14.955-18.858-20.322 c-4.514-3.187-9.431-5.806-14.616-7.72c-3.361,16.717,2.731,35.015,15.445,46.379c0.369,0.33,0.745,0.654,1.126,0.972 c-2.359,0.411-4.689,0.983-6.969,1.714C7.582,68.775,3.634,70.61,0,72.945c8.85,9.963,23.134,14.771,36.208,12.186 c3.524-0.697,7.002-1.919,9.887-4.057c0.073-0.054,0.145-0.111,0.218-0.167c-0.987,5.662-2.714,11.136-5.104,16.221l7.509,2.806 c1.698-5.797,2.631-11.748,2.814-17.669c0.107,0.076,0.215,0.152,0.324,0.225c3.142,2.114,6.863,3.232,10.607,3.796 C76.352,88.379,91.161,82.628,100,71.71C96.061,69.427,91.816,67.684,87.422,66.495z" fill="#87434d" transform="scale(0.9717807851733558)"></path>
</g><g transform="translate(955.1183716857381 -100) rotate(0)">
  <animateTransform attributeName="transform" type="translate" keyTimes="0;1" values="955.1183716857381 -100;2923.316987972249 1530" dur="12.5s" repeatCount="indefinite" begin="-9.650121291907181s"></animateTransform>
  <animateTransform attributeName="transform" type="rotate" keyTimes="0;1" begin="-9.650121291907181s" values="0 50 50;216.32035467208823 50 50" dur="12.5s" repeatCount="indefinite" additive="sum"></animateTransform>
  <path d="M87.422,66.495c-2.009-0.544-4.049-0.97-6.107-1.283c10.617-11.116,15.747-27.37,13.129-42.549 c-5.236,1.77-10.223,4.252-14.824,7.313c-4.13,2.747-7.948,5.961-11.374,9.55C67.425,24.863,61.344,10.451,50.991,0 c-4.015,5.451-7.281,11.444-9.753,17.744c-3.579,9.122-5.501,18.893-5.669,28.691c-4.79-7.979-11.256-14.955-18.858-20.322 c-4.514-3.187-9.431-5.806-14.616-7.72c-3.361,16.717,2.731,35.015,15.445,46.379c0.369,0.33,0.745,0.654,1.126,0.972 c-2.359,0.411-4.689,0.983-6.969,1.714C7.582,68.775,3.634,70.61,0,72.945c8.85,9.963,23.134,14.771,36.208,12.186 c3.524-0.697,7.002-1.919,9.887-4.057c0.073-0.054,0.145-0.111,0.218-0.167c-0.987,5.662-2.714,11.136-5.104,16.221l7.509,2.806 c1.698-5.797,2.631-11.748,2.814-17.669c0.107,0.076,0.215,0.152,0.324,0.225c3.142,2.114,6.863,3.232,10.607,3.796 C76.352,88.379,91.161,82.628,100,71.71C96.061,69.427,91.816,67.684,87.422,66.495z" fill="#869ec9" transform="scale(0.6022732866258891)"></path>
</g><g transform="translate(-100 173.8298624996562) rotate(0)">
  <animateTransform attributeName="transform" type="translate" keyTimes="0;1" values="-100 173.8298624996562;1540 1092.9120101244596" dur="12.5s" repeatCount="indefinite" begin="-2.5346761522747343s"></animateTransform>
  <animateTransform attributeName="transform" type="rotate" keyTimes="0;1" begin="-2.5346761522747343s" values="0 50 50;762.8271037487586 50 50" dur="12.5s" repeatCount="indefinite" additive="sum"></animateTransform>
  <path d="M87.422,66.495c-2.009-0.544-4.049-0.97-6.107-1.283c10.617-11.116,15.747-27.37,13.129-42.549 c-5.236,1.77-10.223,4.252-14.824,7.313c-4.13,2.747-7.948,5.961-11.374,9.55C67.425,24.863,61.344,10.451,50.991,0 c-4.015,5.451-7.281,11.444-9.753,17.744c-3.579,9.122-5.501,18.893-5.669,28.691c-4.79-7.979-11.256-14.955-18.858-20.322 c-4.514-3.187-9.431-5.806-14.616-7.72c-3.361,16.717,2.731,35.015,15.445,46.379c0.369,0.33,0.745,0.654,1.126,0.972 c-2.359,0.411-4.689,0.983-6.969,1.714C7.582,68.775,3.634,70.61,0,72.945c8.85,9.963,23.134,14.771,36.208,12.186 c3.524-0.697,7.002-1.919,9.887-4.057c0.073-0.054,0.145-0.111,0.218-0.167c-0.987,5.662-2.714,11.136-5.104,16.221l7.509,2.806 c1.698-5.797,2.631-11.748,2.814-17.669c0.107,0.076,0.215,0.152,0.324,0.225c3.142,2.114,6.863,3.232,10.607,3.796 C76.352,88.379,91.161,82.628,100,71.71C96.061,69.427,91.816,67.684,87.422,66.495z" fill="#87434d" transform="scale(1.0201041831205717)"></path>
</g><g transform="translate(1296.2316591950785 -100) rotate(0)">
  <animateTransform attributeName="transform" type="translate" keyTimes="0;1" values="1296.2316591950785 -100;3018.2448639415766 1530" dur="12.5s" repeatCount="indefinite" begin="-2.4850276069895205s"></animateTransform>
  <animateTransform attributeName="transform" type="rotate" keyTimes="0;1" begin="-2.4850276069895205s" values="0 50 50;589.5353322233796 50 50" dur="12.5s" repeatCount="indefinite" additive="sum"></animateTransform>
  <path d="M87.422,66.495c-2.009-0.544-4.049-0.97-6.107-1.283c10.617-11.116,15.747-27.37,13.129-42.549 c-5.236,1.77-10.223,4.252-14.824,7.313c-4.13,2.747-7.948,5.961-11.374,9.55C67.425,24.863,61.344,10.451,50.991,0 c-4.015,5.451-7.281,11.444-9.753,17.744c-3.579,9.122-5.501,18.893-5.669,28.691c-4.79-7.979-11.256-14.955-18.858-20.322 c-4.514-3.187-9.431-5.806-14.616-7.72c-3.361,16.717,2.731,35.015,15.445,46.379c0.369,0.33,0.745,0.654,1.126,0.972 c-2.359,0.411-4.689,0.983-6.969,1.714C7.582,68.775,3.634,70.61,0,72.945c8.85,9.963,23.134,14.771,36.208,12.186 c3.524-0.697,7.002-1.919,9.887-4.057c0.073-0.054,0.145-0.111,0.218-0.167c-0.987,5.662-2.714,11.136-5.104,16.221l7.509,2.806 c1.698-5.797,2.631-11.748,2.814-17.669c0.107,0.076,0.215,0.152,0.324,0.225c3.142,2.114,6.863,3.232,10.607,3.796 C76.352,88.379,91.161,82.628,100,71.71C96.061,69.427,91.816,67.684,87.422,66.495z" fill="#576589" transform="scale(0.7732031578776505)"></path>
</g><g transform="translate(-100 571.4875195075226) rotate(0)">
  <animateTransform attributeName="transform" type="translate" keyTimes="0;1" values="-100 571.4875195075226;672.3176521869447 1530" dur="12.5s" repeatCount="indefinite" begin="-5.568892422572983s"></animateTransform>
  <animateTransform attributeName="transform" type="rotate" keyTimes="0;1" begin="-5.568892422572983s" values="0 50 50;625.2466158952325 50 50" dur="12.5s" repeatCount="indefinite" additive="sum"></animateTransform>
  <path d="M87.422,66.495c-2.009-0.544-4.049-0.97-6.107-1.283c10.617-11.116,15.747-27.37,13.129-42.549 c-5.236,1.77-10.223,4.252-14.824,7.313c-4.13,2.747-7.948,5.961-11.374,9.55C67.425,24.863,61.344,10.451,50.991,0 c-4.015,5.451-7.281,11.444-9.753,17.744c-3.579,9.122-5.501,18.893-5.669,28.691c-4.79-7.979-11.256-14.955-18.858-20.322 c-4.514-3.187-9.431-5.806-14.616-7.72c-3.361,16.717,2.731,35.015,15.445,46.379c0.369,0.33,0.745,0.654,1.126,0.972 c-2.359,0.411-4.689,0.983-6.969,1.714C7.582,68.775,3.634,70.61,0,72.945c8.85,9.963,23.134,14.771,36.208,12.186 c3.524-0.697,7.002-1.919,9.887-4.057c0.073-0.054,0.145-0.111,0.218-0.167c-0.987,5.662-2.714,11.136-5.104,16.221l7.509,2.806 c1.698-5.797,2.631-11.748,2.814-17.669c0.107,0.076,0.215,0.152,0.324,0.225c3.142,2.114,6.863,3.232,10.607,3.796 C76.352,88.379,91.161,82.628,100,71.71C96.061,69.427,91.816,67.684,87.422,66.495z" fill="#201c5d" transform="scale(0.8576168210660429)"></path>
</g><g transform="translate(-100 494.2904078183384) rotate(0)">
  <animateTransform attributeName="transform" type="translate" keyTimes="0;1" values="-100 494.2904078183384;816.1379099433144 1530" dur="12.5s" repeatCount="indefinite" begin="-2.531492073592287s"></animateTransform>
  <animateTransform attributeName="transform" type="rotate" keyTimes="0;1" begin="-2.531492073592287s" values="0 50 50;617.7239174061141 50 50" dur="12.5s" repeatCount="indefinite" additive="sum"></animateTransform>
  <path d="M87.422,66.495c-2.009-0.544-4.049-0.97-6.107-1.283c10.617-11.116,15.747-27.37,13.129-42.549 c-5.236,1.77-10.223,4.252-14.824,7.313c-4.13,2.747-7.948,5.961-11.374,9.55C67.425,24.863,61.344,10.451,50.991,0 c-4.015,5.451-7.281,11.444-9.753,17.744c-3.579,9.122-5.501,18.893-5.669,28.691c-4.79-7.979-11.256-14.955-18.858-20.322 c-4.514-3.187-9.431-5.806-14.616-7.72c-3.361,16.717,2.731,35.015,15.445,46.379c0.369,0.33,0.745,0.654,1.126,0.972 c-2.359,0.411-4.689,0.983-6.969,1.714C7.582,68.775,3.634,70.61,0,72.945c8.85,9.963,23.134,14.771,36.208,12.186 c3.524-0.697,7.002-1.919,9.887-4.057c0.073-0.054,0.145-0.111,0.218-0.167c-0.987,5.662-2.714,11.136-5.104,16.221l7.509,2.806 c1.698-5.797,2.631-11.748,2.814-17.669c0.107,0.076,0.215,0.152,0.324,0.225c3.142,2.114,6.863,3.232,10.607,3.796 C76.352,88.379,91.161,82.628,100,71.71C96.061,69.427,91.816,67.684,87.422,66.495z" fill="#576589" transform="scale(0.6076662922762285)"></path>
</g><g transform="translate(-100 714.7249983953634) rotate(0)">
  <animateTransform attributeName="transform" type="translate" keyTimes="0;1" values="-100 714.7249983953634;1540 2129.012089273894" dur="12.5s" repeatCount="indefinite" begin="-7.053441476655542s"></animateTransform>
  <animateTransform attributeName="transform" type="rotate" keyTimes="0;1" begin="-7.053441476655542s" values="0 50 50;215.2573960770511 50 50" dur="12.5s" repeatCount="indefinite" additive="sum"></animateTransform>
  <path d="M87.422,66.495c-2.009-0.544-4.049-0.97-6.107-1.283c10.617-11.116,15.747-27.37,13.129-42.549 c-5.236,1.77-10.223,4.252-14.824,7.313c-4.13,2.747-7.948,5.961-11.374,9.55C67.425,24.863,61.344,10.451,50.991,0 c-4.015,5.451-7.281,11.444-9.753,17.744c-3.579,9.122-5.501,18.893-5.669,28.691c-4.79-7.979-11.256-14.955-18.858-20.322 c-4.514-3.187-9.431-5.806-14.616-7.72c-3.361,16.717,2.731,35.015,15.445,46.379c0.369,0.33,0.745,0.654,1.126,0.972 c-2.359,0.411-4.689,0.983-6.969,1.714C7.582,68.775,3.634,70.61,0,72.945c8.85,9.963,23.134,14.771,36.208,12.186 c3.524-0.697,7.002-1.919,9.887-4.057c0.073-0.054,0.145-0.111,0.218-0.167c-0.987,5.662-2.714,11.136-5.104,16.221l7.509,2.806 c1.698-5.797,2.631-11.748,2.814-17.669c0.107,0.076,0.215,0.152,0.324,0.225c3.142,2.114,6.863,3.232,10.607,3.796 C76.352,88.379,91.161,82.628,100,71.71C96.061,69.427,91.816,67.684,87.422,66.495z" fill="#9fbae7" transform="scale(1.0046364402442858)"></path>
</g><g transform="translate(458.5614673011882 -100) rotate(0)">
  <animateTransform attributeName="transform" type="translate" keyTimes="0;1" values="458.5614673011882 -100;1540 1976.8306247738028" dur="12.5s" repeatCount="indefinite" begin="-2.0758884505450133s"></animateTransform>
  <animateTransform attributeName="transform" type="rotate" keyTimes="0;1" begin="-2.0758884505450133s" values="0 50 50;255.00970587581992 50 50" dur="12.5s" repeatCount="indefinite" additive="sum"></animateTransform>
  <path d="M87.422,66.495c-2.009-0.544-4.049-0.97-6.107-1.283c10.617-11.116,15.747-27.37,13.129-42.549 c-5.236,1.77-10.223,4.252-14.824,7.313c-4.13,2.747-7.948,5.961-11.374,9.55C67.425,24.863,61.344,10.451,50.991,0 c-4.015,5.451-7.281,11.444-9.753,17.744c-3.579,9.122-5.501,18.893-5.669,28.691c-4.79-7.979-11.256-14.955-18.858-20.322 c-4.514-3.187-9.431-5.806-14.616-7.72c-3.361,16.717,2.731,35.015,15.445,46.379c0.369,0.33,0.745,0.654,1.126,0.972 c-2.359,0.411-4.689,0.983-6.969,1.714C7.582,68.775,3.634,70.61,0,72.945c8.85,9.963,23.134,14.771,36.208,12.186 c3.524-0.697,7.002-1.919,9.887-4.057c0.073-0.054,0.145-0.111,0.218-0.167c-0.987,5.662-2.714,11.136-5.104,16.221l7.509,2.806 c1.698-5.797,2.631-11.748,2.814-17.669c0.107,0.076,0.215,0.152,0.324,0.225c3.142,2.114,6.863,3.232,10.607,3.796 C76.352,88.379,91.161,82.628,100,71.71C96.061,69.427,91.816,67.684,87.422,66.495z" fill="#201c5d" transform="scale(0.6369179523591205)"></path>
</g><g transform="translate(606.0560197808235 -100) rotate(0)">
  <animateTransform attributeName="transform" type="translate" keyTimes="0;1" values="606.0560197808235 -100;1540 1076.3429782451335" dur="12.5s" repeatCount="indefinite" begin="-9.162043625709027s"></animateTransform>
  <animateTransform attributeName="transform" type="rotate" keyTimes="0;1" begin="-9.162043625709027s" values="0 50 50;835.691212644237 50 50" dur="12.5s" repeatCount="indefinite" additive="sum"></animateTransform>
  <path d="M87.422,66.495c-2.009-0.544-4.049-0.97-6.107-1.283c10.617-11.116,15.747-27.37,13.129-42.549 c-5.236,1.77-10.223,4.252-14.824,7.313c-4.13,2.747-7.948,5.961-11.374,9.55C67.425,24.863,61.344,10.451,50.991,0 c-4.015,5.451-7.281,11.444-9.753,17.744c-3.579,9.122-5.501,18.893-5.669,28.691c-4.79-7.979-11.256-14.955-18.858-20.322 c-4.514-3.187-9.431-5.806-14.616-7.72c-3.361,16.717,2.731,35.015,15.445,46.379c0.369,0.33,0.745,0.654,1.126,0.972 c-2.359,0.411-4.689,0.983-6.969,1.714C7.582,68.775,3.634,70.61,0,72.945c8.85,9.963,23.134,14.771,36.208,12.186 c3.524-0.697,7.002-1.919,9.887-4.057c0.073-0.054,0.145-0.111,0.218-0.167c-0.987,5.662-2.714,11.136-5.104,16.221l7.509,2.806 c1.698-5.797,2.631-11.748,2.814-17.669c0.107,0.076,0.215,0.152,0.324,0.225c3.142,2.114,6.863,3.232,10.607,3.796 C76.352,88.379,91.161,82.628,100,71.71C96.061,69.427,91.816,67.684,87.422,66.495z" fill="#552b2f" transform="scale(0.5420285048821375)"></path>
</g><g transform="translate(-100 221.2493231082896) rotate(0)">
  <animateTransform attributeName="transform" type="translate" keyTimes="0;1" values="-100 221.2493231082896;719.2121313982433 1530" dur="12.5s" repeatCount="indefinite" begin="-11.02886344079603s"></animateTransform>
  <animateTransform attributeName="transform" type="rotate" keyTimes="0;1" begin="-11.02886344079603s" values="0 50 50;1036.2118045365062 50 50" dur="12.5s" repeatCount="indefinite" additive="sum"></animateTransform>
  <path d="M87.422,66.495c-2.009-0.544-4.049-0.97-6.107-1.283c10.617-11.116,15.747-27.37,13.129-42.549 c-5.236,1.77-10.223,4.252-14.824,7.313c-4.13,2.747-7.948,5.961-11.374,9.55C67.425,24.863,61.344,10.451,50.991,0 c-4.015,5.451-7.281,11.444-9.753,17.744c-3.579,9.122-5.501,18.893-5.669,28.691c-4.79-7.979-11.256-14.955-18.858-20.322 c-4.514-3.187-9.431-5.806-14.616-7.72c-3.361,16.717,2.731,35.015,15.445,46.379c0.369,0.33,0.745,0.654,1.126,0.972 c-2.359,0.411-4.689,0.983-6.969,1.714C7.582,68.775,3.634,70.61,0,72.945c8.85,9.963,23.134,14.771,36.208,12.186 c3.524-0.697,7.002-1.919,9.887-4.057c0.073-0.054,0.145-0.111,0.218-0.167c-0.987,5.662-2.714,11.136-5.104,16.221l7.509,2.806 c1.698-5.797,2.631-11.748,2.814-17.669c0.107,0.076,0.215,0.152,0.324,0.225c3.142,2.114,6.863,3.232,10.607,3.796 C76.352,88.379,91.161,82.628,100,71.71C96.061,69.427,91.816,67.684,87.422,66.495z" fill="#9fbae7" transform="scale(1.0496636304203848)"></path>
</g><g transform="translate(647.0162906665531 -100) rotate(0)">
  <animateTransform attributeName="transform" type="translate" keyTimes="0;1" values="647.0162906665531 -100;1540 1556.0377579635858" dur="12.5s" repeatCount="indefinite" begin="-11.458078036258465s"></animateTransform>
  <animateTransform attributeName="transform" type="rotate" keyTimes="0;1" begin="-11.458078036258465s" values="0 50 50;14.209733575661696 50 50" dur="12.5s" repeatCount="indefinite" additive="sum"></animateTransform>
  <path d="M87.422,66.495c-2.009-0.544-4.049-0.97-6.107-1.283c10.617-11.116,15.747-27.37,13.129-42.549 c-5.236,1.77-10.223,4.252-14.824,7.313c-4.13,2.747-7.948,5.961-11.374,9.55C67.425,24.863,61.344,10.451,50.991,0 c-4.015,5.451-7.281,11.444-9.753,17.744c-3.579,9.122-5.501,18.893-5.669,28.691c-4.79-7.979-11.256-14.955-18.858-20.322 c-4.514-3.187-9.431-5.806-14.616-7.72c-3.361,16.717,2.731,35.015,15.445,46.379c0.369,0.33,0.745,0.654,1.126,0.972 c-2.359,0.411-4.689,0.983-6.969,1.714C7.582,68.775,3.634,70.61,0,72.945c8.85,9.963,23.134,14.771,36.208,12.186 c3.524-0.697,7.002-1.919,9.887-4.057c0.073-0.054,0.145-0.111,0.218-0.167c-0.987,5.662-2.714,11.136-5.104,16.221l7.509,2.806 c1.698-5.797,2.631-11.748,2.814-17.669c0.107,0.076,0.215,0.152,0.324,0.225c3.142,2.114,6.863,3.232,10.607,3.796 C76.352,88.379,91.161,82.628,100,71.71C96.061,69.427,91.816,67.684,87.422,66.495z" fill="#576589" transform="scale(1.0608432091186686)"></path>
</g><g transform="translate(-100 190.1068715554968) rotate(0)">
  <animateTransform attributeName="transform" type="translate" keyTimes="0;1" values="-100 190.1068715554968;1768.3124757500987 1530" dur="12.5s" repeatCount="indefinite" begin="-10.327182421131598s"></animateTransform>
  <animateTransform attributeName="transform" type="rotate" keyTimes="0;1" begin="-10.327182421131598s" values="0 50 50;523.8458258783395 50 50" dur="12.5s" repeatCount="indefinite" additive="sum"></animateTransform>
  <path d="M87.422,66.495c-2.009-0.544-4.049-0.97-6.107-1.283c10.617-11.116,15.747-27.37,13.129-42.549 c-5.236,1.77-10.223,4.252-14.824,7.313c-4.13,2.747-7.948,5.961-11.374,9.55C67.425,24.863,61.344,10.451,50.991,0 c-4.015,5.451-7.281,11.444-9.753,17.744c-3.579,9.122-5.501,18.893-5.669,28.691c-4.79-7.979-11.256-14.955-18.858-20.322 c-4.514-3.187-9.431-5.806-14.616-7.72c-3.361,16.717,2.731,35.015,15.445,46.379c0.369,0.33,0.745,0.654,1.126,0.972 c-2.359,0.411-4.689,0.983-6.969,1.714C7.582,68.775,3.634,70.61,0,72.945c8.85,9.963,23.134,14.771,36.208,12.186 c3.524-0.697,7.002-1.919,9.887-4.057c0.073-0.054,0.145-0.111,0.218-0.167c-0.987,5.662-2.714,11.136-5.104,16.221l7.509,2.806 c1.698-5.797,2.631-11.748,2.814-17.669c0.107,0.076,0.215,0.152,0.324,0.225c3.142,2.114,6.863,3.232,10.607,3.796 C76.352,88.379,91.161,82.628,100,71.71C96.061,69.427,91.816,67.684,87.422,66.495z" fill="#9fbae7" transform="scale(0.7249652976597953)"></path>
</g><g transform="translate(-100 9.723221407016249) rotate(0)">
  <animateTransform attributeName="transform" type="translate" keyTimes="0;1" values="-100 9.723221407016249;1540 1607.788192865567" dur="12.5s" repeatCount="indefinite" begin="-10.097306143496846s"></animateTransform>
  <animateTransform attributeName="transform" type="rotate" keyTimes="0;1" begin="-10.097306143496846s" values="0 50 50;859.5825606354783 50 50" dur="12.5s" repeatCount="indefinite" additive="sum"></animateTransform>
  <path d="M87.422,66.495c-2.009-0.544-4.049-0.97-6.107-1.283c10.617-11.116,15.747-27.37,13.129-42.549 c-5.236,1.77-10.223,4.252-14.824,7.313c-4.13,2.747-7.948,5.961-11.374,9.55C67.425,24.863,61.344,10.451,50.991,0 c-4.015,5.451-7.281,11.444-9.753,17.744c-3.579,9.122-5.501,18.893-5.669,28.691c-4.79-7.979-11.256-14.955-18.858-20.322 c-4.514-3.187-9.431-5.806-14.616-7.72c-3.361,16.717,2.731,35.015,15.445,46.379c0.369,0.33,0.745,0.654,1.126,0.972 c-2.359,0.411-4.689,0.983-6.969,1.714C7.582,68.775,3.634,70.61,0,72.945c8.85,9.963,23.134,14.771,36.208,12.186 c3.524-0.697,7.002-1.919,9.887-4.057c0.073-0.054,0.145-0.111,0.218-0.167c-0.987,5.662-2.714,11.136-5.104,16.221l7.509,2.806 c1.698-5.797,2.631-11.748,2.814-17.669c0.107,0.076,0.215,0.152,0.324,0.225c3.142,2.114,6.863,3.232,10.607,3.796 C76.352,88.379,91.161,82.628,100,71.71C96.061,69.427,91.816,67.684,87.422,66.495z" fill="#869ec9" transform="scale(0.7788047503666842)"></path>
</g><g transform="translate(1212.827020293135 -100) rotate(0)">
  <animateTransform attributeName="transform" type="translate" keyTimes="0;1" values="1212.827020293135 -100;1540 1214.3092866805318" dur="12.5s" repeatCount="indefinite" begin="-11.302124335754618s"></animateTransform>
  <animateTransform attributeName="transform" type="rotate" keyTimes="0;1" begin="-11.302124335754618s" values="0 50 50;94.48834881403468 50 50" dur="12.5s" repeatCount="indefinite" additive="sum"></animateTransform>
  <path d="M87.422,66.495c-2.009-0.544-4.049-0.97-6.107-1.283c10.617-11.116,15.747-27.37,13.129-42.549 c-5.236,1.77-10.223,4.252-14.824,7.313c-4.13,2.747-7.948,5.961-11.374,9.55C67.425,24.863,61.344,10.451,50.991,0 c-4.015,5.451-7.281,11.444-9.753,17.744c-3.579,9.122-5.501,18.893-5.669,28.691c-4.79-7.979-11.256-14.955-18.858-20.322 c-4.514-3.187-9.431-5.806-14.616-7.72c-3.361,16.717,2.731,35.015,15.445,46.379c0.369,0.33,0.745,0.654,1.126,0.972 c-2.359,0.411-4.689,0.983-6.969,1.714C7.582,68.775,3.634,70.61,0,72.945c8.85,9.963,23.134,14.771,36.208,12.186 c3.524-0.697,7.002-1.919,9.887-4.057c0.073-0.054,0.145-0.111,0.218-0.167c-0.987,5.662-2.714,11.136-5.104,16.221l7.509,2.806 c1.698-5.797,2.631-11.748,2.814-17.669c0.107,0.076,0.215,0.152,0.324,0.225c3.142,2.114,6.863,3.232,10.607,3.796 C76.352,88.379,91.161,82.628,100,71.71C96.061,69.427,91.816,67.684,87.422,66.495z" fill="#869ec9" transform="scale(0.9974143067290289)"></path>
</g><g transform="translate(559.0128001237985 -100) rotate(0)">
  <animateTransform attributeName="transform" type="translate" keyTimes="0;1" values="559.0128001237985 -100;2231.473093198315 1530" dur="12.5s" repeatCount="indefinite" begin="-7.896073002388823s"></animateTransform>
  <animateTransform attributeName="transform" type="rotate" keyTimes="0;1" begin="-7.896073002388823s" values="0 50 50;804.5581529421597 50 50" dur="12.5s" repeatCount="indefinite" additive="sum"></animateTransform>
  <path d="M87.422,66.495c-2.009-0.544-4.049-0.97-6.107-1.283c10.617-11.116,15.747-27.37,13.129-42.549 c-5.236,1.77-10.223,4.252-14.824,7.313c-4.13,2.747-7.948,5.961-11.374,9.55C67.425,24.863,61.344,10.451,50.991,0 c-4.015,5.451-7.281,11.444-9.753,17.744c-3.579,9.122-5.501,18.893-5.669,28.691c-4.79-7.979-11.256-14.955-18.858-20.322 c-4.514-3.187-9.431-5.806-14.616-7.72c-3.361,16.717,2.731,35.015,15.445,46.379c0.369,0.33,0.745,0.654,1.126,0.972 c-2.359,0.411-4.689,0.983-6.969,1.714C7.582,68.775,3.634,70.61,0,72.945c8.85,9.963,23.134,14.771,36.208,12.186 c3.524-0.697,7.002-1.919,9.887-4.057c0.073-0.054,0.145-0.111,0.218-0.167c-0.987,5.662-2.714,11.136-5.104,16.221l7.509,2.806 c1.698-5.797,2.631-11.748,2.814-17.669c0.107,0.076,0.215,0.152,0.324,0.225c3.142,2.114,6.863,3.232,10.607,3.796 C76.352,88.379,91.161,82.628,100,71.71C96.061,69.427,91.816,67.684,87.422,66.495z" fill="#201c5d" transform="scale(1.1086720858345225)"></path>
</g><g transform="translate(-100 146.33016271652008) rotate(0)">
  <animateTransform attributeName="transform" type="translate" keyTimes="0;1" values="-100 146.33016271652008;1540 2205.7847506013404" dur="12.5s" repeatCount="indefinite" begin="-2.982332919825412s"></animateTransform>
  <animateTransform attributeName="transform" type="rotate" keyTimes="0;1" begin="-2.982332919825412s" values="0 50 50;891.323133621616 50 50" dur="12.5s" repeatCount="indefinite" additive="sum"></animateTransform>
  <path d="M87.422,66.495c-2.009-0.544-4.049-0.97-6.107-1.283c10.617-11.116,15.747-27.37,13.129-42.549 c-5.236,1.77-10.223,4.252-14.824,7.313c-4.13,2.747-7.948,5.961-11.374,9.55C67.425,24.863,61.344,10.451,50.991,0 c-4.015,5.451-7.281,11.444-9.753,17.744c-3.579,9.122-5.501,18.893-5.669,28.691c-4.79-7.979-11.256-14.955-18.858-20.322 c-4.514-3.187-9.431-5.806-14.616-7.72c-3.361,16.717,2.731,35.015,15.445,46.379c0.369,0.33,0.745,0.654,1.126,0.972 c-2.359,0.411-4.689,0.983-6.969,1.714C7.582,68.775,3.634,70.61,0,72.945c8.85,9.963,23.134,14.771,36.208,12.186 c3.524-0.697,7.002-1.919,9.887-4.057c0.073-0.054,0.145-0.111,0.218-0.167c-0.987,5.662-2.714,11.136-5.104,16.221l7.509,2.806 c1.698-5.797,2.631-11.748,2.814-17.669c0.107,0.076,0.215,0.152,0.324,0.225c3.142,2.114,6.863,3.232,10.607,3.796 C76.352,88.379,91.161,82.628,100,71.71C96.061,69.427,91.816,67.684,87.422,66.495z" fill="#9fbae7" transform="scale(0.6801897899548669)"></path>
</g><g transform="translate(1272.9984016836831 -100) rotate(0)">
  <animateTransform attributeName="transform" type="translate" keyTimes="0;1" values="1272.9984016836831 -100;2830.245793309049 1530" dur="12.5s" repeatCount="indefinite" begin="-9.838805984978654s"></animateTransform>
  <animateTransform attributeName="transform" type="rotate" keyTimes="0;1" begin="-9.838805984978654s" values="0 50 50;673.3830387722444 50 50" dur="12.5s" repeatCount="indefinite" additive="sum"></animateTransform>
  <path d="M87.422,66.495c-2.009-0.544-4.049-0.97-6.107-1.283c10.617-11.116,15.747-27.37,13.129-42.549 c-5.236,1.77-10.223,4.252-14.824,7.313c-4.13,2.747-7.948,5.961-11.374,9.55C67.425,24.863,61.344,10.451,50.991,0 c-4.015,5.451-7.281,11.444-9.753,17.744c-3.579,9.122-5.501,18.893-5.669,28.691c-4.79-7.979-11.256-14.955-18.858-20.322 c-4.514-3.187-9.431-5.806-14.616-7.72c-3.361,16.717,2.731,35.015,15.445,46.379c0.369,0.33,0.745,0.654,1.126,0.972 c-2.359,0.411-4.689,0.983-6.969,1.714C7.582,68.775,3.634,70.61,0,72.945c8.85,9.963,23.134,14.771,36.208,12.186 c3.524-0.697,7.002-1.919,9.887-4.057c0.073-0.054,0.145-0.111,0.218-0.167c-0.987,5.662-2.714,11.136-5.104,16.221l7.509,2.806 c1.698-5.797,2.631-11.748,2.814-17.669c0.107,0.076,0.215,0.152,0.324,0.225c3.142,2.114,6.863,3.232,10.607,3.796 C76.352,88.379,91.161,82.628,100,71.71C96.061,69.427,91.816,67.684,87.422,66.495z" fill="#87434d" transform="scale(0.9490525693741875)"></path>
</g><g transform="translate(219.4428455243269 -100) rotate(0)">
  <animateTransform attributeName="transform" type="translate" keyTimes="0;1" values="219.4428455243269 -100;1540 1965.7047840718842" dur="12.5s" repeatCount="indefinite" begin="-9.711891025234587s"></animateTransform>
  <animateTransform attributeName="transform" type="rotate" keyTimes="0;1" begin="-9.711891025234587s" values="0 50 50;745.4563359430678 50 50" dur="12.5s" repeatCount="indefinite" additive="sum"></animateTransform>
  <path d="M87.422,66.495c-2.009-0.544-4.049-0.97-6.107-1.283c10.617-11.116,15.747-27.37,13.129-42.549 c-5.236,1.77-10.223,4.252-14.824,7.313c-4.13,2.747-7.948,5.961-11.374,9.55C67.425,24.863,61.344,10.451,50.991,0 c-4.015,5.451-7.281,11.444-9.753,17.744c-3.579,9.122-5.501,18.893-5.669,28.691c-4.79-7.979-11.256-14.955-18.858-20.322 c-4.514-3.187-9.431-5.806-14.616-7.72c-3.361,16.717,2.731,35.015,15.445,46.379c0.369,0.33,0.745,0.654,1.126,0.972 c-2.359,0.411-4.689,0.983-6.969,1.714C7.582,68.775,3.634,70.61,0,72.945c8.85,9.963,23.134,14.771,36.208,12.186 c3.524-0.697,7.002-1.919,9.887-4.057c0.073-0.054,0.145-0.111,0.218-0.167c-0.987,5.662-2.714,11.136-5.104,16.221l7.509,2.806 c1.698-5.797,2.631-11.748,2.814-17.669c0.107,0.076,0.215,0.152,0.324,0.225c3.142,2.114,6.863,3.232,10.607,3.796 C76.352,88.379,91.161,82.628,100,71.71C96.061,69.427,91.816,67.684,87.422,66.495z" fill="#869ec9" transform="scale(0.9880524786974928)"></path>
</g><g transform="translate(1275.5487712748086 -100) rotate(0)">
  <animateTransform attributeName="transform" type="translate" keyTimes="0;1" values="1275.5487712748086 -100;1540 855.8892255498403" dur="12.5s" repeatCount="indefinite" begin="-2.2081563525005676s"></animateTransform>
  <animateTransform attributeName="transform" type="rotate" keyTimes="0;1" begin="-2.2081563525005676s" values="0 50 50;146.04971003250716 50 50" dur="12.5s" repeatCount="indefinite" additive="sum"></animateTransform>
  <path d="M87.422,66.495c-2.009-0.544-4.049-0.97-6.107-1.283c10.617-11.116,15.747-27.37,13.129-42.549 c-5.236,1.77-10.223,4.252-14.824,7.313c-4.13,2.747-7.948,5.961-11.374,9.55C67.425,24.863,61.344,10.451,50.991,0 c-4.015,5.451-7.281,11.444-9.753,17.744c-3.579,9.122-5.501,18.893-5.669,28.691c-4.79-7.979-11.256-14.955-18.858-20.322 c-4.514-3.187-9.431-5.806-14.616-7.72c-3.361,16.717,2.731,35.015,15.445,46.379c0.369,0.33,0.745,0.654,1.126,0.972 c-2.359,0.411-4.689,0.983-6.969,1.714C7.582,68.775,3.634,70.61,0,72.945c8.85,9.963,23.134,14.771,36.208,12.186 c3.524-0.697,7.002-1.919,9.887-4.057c0.073-0.054,0.145-0.111,0.218-0.167c-0.987,5.662-2.714,11.136-5.104,16.221l7.509,2.806 c1.698-5.797,2.631-11.748,2.814-17.669c0.107,0.076,0.215,0.152,0.324,0.225c3.142,2.114,6.863,3.232,10.607,3.796 C76.352,88.379,91.161,82.628,100,71.71C96.061,69.427,91.816,67.684,87.422,66.495z" fill="#9fbae7" transform="scale(0.9077637347934552)"></path>
</g><g transform="translate(-100 199.43814662618965) rotate(0)">
  <animateTransform attributeName="transform" type="translate" keyTimes="0;1" values="-100 199.43814662618965;1103.560471637089 1530" dur="12.5s" repeatCount="indefinite" begin="-9.136123692106409s"></animateTransform>
  <animateTransform attributeName="transform" type="rotate" keyTimes="0;1" begin="-9.136123692106409s" values="0 50 50;163.21459457325946 50 50" dur="12.5s" repeatCount="indefinite" additive="sum"></animateTransform>
  <path d="M87.422,66.495c-2.009-0.544-4.049-0.97-6.107-1.283c10.617-11.116,15.747-27.37,13.129-42.549 c-5.236,1.77-10.223,4.252-14.824,7.313c-4.13,2.747-7.948,5.961-11.374,9.55C67.425,24.863,61.344,10.451,50.991,0 c-4.015,5.451-7.281,11.444-9.753,17.744c-3.579,9.122-5.501,18.893-5.669,28.691c-4.79-7.979-11.256-14.955-18.858-20.322 c-4.514-3.187-9.431-5.806-14.616-7.72c-3.361,16.717,2.731,35.015,15.445,46.379c0.369,0.33,0.745,0.654,1.126,0.972 c-2.359,0.411-4.689,0.983-6.969,1.714C7.582,68.775,3.634,70.61,0,72.945c8.85,9.963,23.134,14.771,36.208,12.186 c3.524-0.697,7.002-1.919,9.887-4.057c0.073-0.054,0.145-0.111,0.218-0.167c-0.987,5.662-2.714,11.136-5.104,16.221l7.509,2.806 c1.698-5.797,2.631-11.748,2.814-17.669c0.107,0.076,0.215,0.152,0.324,0.225c3.142,2.114,6.863,3.232,10.607,3.796 C76.352,88.379,91.161,82.628,100,71.71C96.061,69.427,91.816,67.684,87.422,66.495z" fill="#87434d" transform="scale(0.678451071634098)"></path>
</g><g transform="translate(-100 521.6554768356453) rotate(0)">
  <animateTransform attributeName="transform" type="translate" keyTimes="0;1" values="-100 521.6554768356453;1951.2119814565522 1530" dur="12.5s" repeatCount="indefinite" begin="-10.906233691937025s"></animateTransform>
  <animateTransform attributeName="transform" type="rotate" keyTimes="0;1" begin="-10.906233691937025s" values="0 50 50;515.0812993376244 50 50" dur="12.5s" repeatCount="indefinite" additive="sum"></animateTransform>
  <path d="M87.422,66.495c-2.009-0.544-4.049-0.97-6.107-1.283c10.617-11.116,15.747-27.37,13.129-42.549 c-5.236,1.77-10.223,4.252-14.824,7.313c-4.13,2.747-7.948,5.961-11.374,9.55C67.425,24.863,61.344,10.451,50.991,0 c-4.015,5.451-7.281,11.444-9.753,17.744c-3.579,9.122-5.501,18.893-5.669,28.691c-4.79-7.979-11.256-14.955-18.858-20.322 c-4.514-3.187-9.431-5.806-14.616-7.72c-3.361,16.717,2.731,35.015,15.445,46.379c0.369,0.33,0.745,0.654,1.126,0.972 c-2.359,0.411-4.689,0.983-6.969,1.714C7.582,68.775,3.634,70.61,0,72.945c8.85,9.963,23.134,14.771,36.208,12.186 c3.524-0.697,7.002-1.919,9.887-4.057c0.073-0.054,0.145-0.111,0.218-0.167c-0.987,5.662-2.714,11.136-5.104,16.221l7.509,2.806 c1.698-5.797,2.631-11.748,2.814-17.669c0.107,0.076,0.215,0.152,0.324,0.225c3.142,2.114,6.863,3.232,10.607,3.796 C76.352,88.379,91.161,82.628,100,71.71C96.061,69.427,91.816,67.684,87.422,66.495z" fill="#9fbae7" transform="scale(0.5910037461953153)"></path>
</g><g transform="translate(893.5472028209863 -100) rotate(0)">
  <animateTransform attributeName="transform" type="translate" keyTimes="0;1" values="893.5472028209863 -100;1540 811.5457918345224" dur="12.5s" repeatCount="indefinite" begin="-10.184181891196573s"></animateTransform>
  <animateTransform attributeName="transform" type="rotate" keyTimes="0;1" begin="-10.184181891196573s" values="0 50 50;982.8539356407186 50 50" dur="12.5s" repeatCount="indefinite" additive="sum"></animateTransform>
  <path d="M87.422,66.495c-2.009-0.544-4.049-0.97-6.107-1.283c10.617-11.116,15.747-27.37,13.129-42.549 c-5.236,1.77-10.223,4.252-14.824,7.313c-4.13,2.747-7.948,5.961-11.374,9.55C67.425,24.863,61.344,10.451,50.991,0 c-4.015,5.451-7.281,11.444-9.753,17.744c-3.579,9.122-5.501,18.893-5.669,28.691c-4.79-7.979-11.256-14.955-18.858-20.322 c-4.514-3.187-9.431-5.806-14.616-7.72c-3.361,16.717,2.731,35.015,15.445,46.379c0.369,0.33,0.745,0.654,1.126,0.972 c-2.359,0.411-4.689,0.983-6.969,1.714C7.582,68.775,3.634,70.61,0,72.945c8.85,9.963,23.134,14.771,36.208,12.186 c3.524-0.697,7.002-1.919,9.887-4.057c0.073-0.054,0.145-0.111,0.218-0.167c-0.987,5.662-2.714,11.136-5.104,16.221l7.509,2.806 c1.698-5.797,2.631-11.748,2.814-17.669c0.107,0.076,0.215,0.152,0.324,0.225c3.142,2.114,6.863,3.232,10.607,3.796 C76.352,88.379,91.161,82.628,100,71.71C96.061,69.427,91.816,67.684,87.422,66.495z" fill="#87434d" transform="scale(1.1155195293285982)"></path>
</g></g>
</svg>