<?xml version="1.0" encoding="utf-8"?>
<svg xmlns="http://www.w3.org/2000/svg" xmlns:xlink="http://www.w3.org/1999/xlink" style="background: rgb(18, 54, 89); display: block; position: relative; shape-rendering: auto;" width="25" height="25" preserveAspectRatio="xMidYMid" viewBox="0 0 25 25"><g transform="scale(0.1)"><g>
  <line x1="226.19796959276562" x2="200.17459250176557" y1="30.40387479612786" y2="56.427251887127916" stroke-width="5" stroke="#214076" stroke-linecap="round"></line><line x1="226.19796959276562" x2="200.17459250176557" y1="-481.59612520387213" y2="-455.5727481128721" stroke-width="5" stroke="#214076" stroke-linecap="round"></line><line x1="482.1979695927656" x2="456.1745925017656" y1="-481.59612520387213" y2="-455.5727481128721" stroke-width="5" stroke="#214076" stroke-linecap="round"></line><line x1="738.1979695927656" x2="712.1745925017656" y1="-481.59612520387213" y2="-455.5727481128721" stroke-width="5" stroke="#214076" stroke-linecap="round"></line><line x1="226.19796959276562" x2="200.17459250176557" y1="-225.59612520387213" y2="-199.5727481128721" stroke-width="5" stroke="#214076" stroke-linecap="round"></line><line x1="482.1979695927656" x2="456.1745925017656" y1="-225.59612520387213" y2="-199.5727481128721" stroke-width="5" stroke="#214076" stroke-linecap="round"></line><line x1="738.1979695927656" x2="712.1745925017656" y1="-225.59612520387213" y2="-199.5727481128721" stroke-width="5" stroke="#214076" stroke-linecap="round"></line><line x1="226.19796959276562" x2="200.17459250176557" y1="30.40387479612786" y2="56.427251887127916" stroke-width="5" stroke="#214076" stroke-linecap="round"></line><line x1="482.1979695927656" x2="456.1745925017656" y1="30.40387479612786" y2="56.427251887127916" stroke-width="5" stroke="#214076" stroke-linecap="round"></line><line x1="738.1979695927656" x2="712.1745925017656" y1="30.40387479612786" y2="56.427251887127916" stroke-width="5" stroke="#214076" stroke-linecap="round"></line><line x1="60.930710722329614" x2="50.139557410577176" y1="152.24192030434565" y2="163.0330736160981" stroke-width="5" stroke="#214076" stroke-linecap="round"></line><line x1="60.930710722329614" x2="50.139557410577176" y1="-359.7580796956544" y2="-348.96692638390186" stroke-width="5" stroke="#214076" stroke-linecap="round"></line><line x1="316.9307107223296" x2="306.1395574105772" y1="-359.7580796956544" y2="-348.96692638390186" stroke-width="5" stroke="#214076" stroke-linecap="round"></line><line x1="572.9307107223296" x2="562.1395574105771" y1="-359.7580796956544" y2="-348.96692638390186" stroke-width="5" stroke="#214076" stroke-linecap="round"></line><line x1="60.930710722329614" x2="50.139557410577176" y1="-103.75807969565435" y2="-92.96692638390189" stroke-width="5" stroke="#214076" stroke-linecap="round"></line><line x1="316.9307107223296" x2="306.1395574105772" y1="-103.75807969565435" y2="-92.96692638390189" stroke-width="5" stroke="#214076" stroke-linecap="round"></line><line x1="572.9307107223296" x2="562.1395574105771" y1="-103.75807969565435" y2="-92.96692638390189" stroke-width="5" stroke="#214076" stroke-linecap="round"></line><line x1="60.930710722329614" x2="50.139557410577176" y1="152.24192030434565" y2="163.0330736160981" stroke-width="5" stroke="#214076" stroke-linecap="round"></line><line x1="316.9307107223296" x2="306.1395574105772" y1="152.24192030434565" y2="163.0330736160981" stroke-width="5" stroke="#214076" stroke-linecap="round"></line><line x1="572.9307107223296" x2="562.1395574105771" y1="152.24192030434565" y2="163.0330736160981" stroke-width="5" stroke="#214076" stroke-linecap="round"></line><line x1="25.230902422067267" x2="13.116148857882669" y1="109.74304875367098" y2="121.85780231785559" stroke-width="5" stroke="#849ecb" stroke-linecap="round"></line><line x1="25.230902422067267" x2="13.116148857882669" y1="-402.25695124632904" y2="-390.1421976821444" stroke-width="5" stroke="#849ecb" stroke-linecap="round"></line><line x1="281.2309024220673" x2="269.11614885788265" y1="-402.25695124632904" y2="-390.1421976821444" stroke-width="5" stroke="#849ecb" stroke-linecap="round"></line><line x1="537.2309024220673" x2="525.1161488578826" y1="-402.25695124632904" y2="-390.1421976821444" stroke-width="5" stroke="#849ecb" stroke-linecap="round"></line><line x1="25.230902422067267" x2="13.116148857882669" y1="-146.25695124632904" y2="-134.1421976821444" stroke-width="5" stroke="#849ecb" stroke-linecap="round"></line><line x1="281.2309024220673" x2="269.11614885788265" y1="-146.25695124632904" y2="-134.1421976821444" stroke-width="5" stroke="#849ecb" stroke-linecap="round"></line><line x1="537.2309024220673" x2="525.1161488578826" y1="-146.25695124632904" y2="-134.1421976821444" stroke-width="5" stroke="#849ecb" stroke-linecap="round"></line><line x1="25.230902422067267" x2="13.116148857882669" y1="109.74304875367098" y2="121.85780231785559" stroke-width="5" stroke="#849ecb" stroke-linecap="round"></line><line x1="281.2309024220673" x2="269.11614885788265" y1="109.74304875367098" y2="121.85780231785559" stroke-width="5" stroke="#849ecb" stroke-linecap="round"></line><line x1="537.2309024220673" x2="525.1161488578826" y1="109.74304875367098" y2="121.85780231785559" stroke-width="5" stroke="#849ecb" stroke-linecap="round"></line><line x1="163.2309246691389" x2="135.67671066450166" y1="101.8809132680262" y2="129.43512727266344" stroke-width="5" stroke="#214076" stroke-linecap="round"></line><line x1="163.2309246691389" x2="135.67671066450166" y1="-410.11908673197377" y2="-382.5648727273366" stroke-width="5" stroke="#214076" stroke-linecap="round"></line><line x1="419.23092466913886" x2="391.6767106645017" y1="-410.11908673197377" y2="-382.5648727273366" stroke-width="5" stroke="#214076" stroke-linecap="round"></line><line x1="675.2309246691389" x2="647.6767106645017" y1="-410.11908673197377" y2="-382.5648727273366" stroke-width="5" stroke="#214076" stroke-linecap="round"></line><line x1="163.2309246691389" x2="135.67671066450166" y1="-154.1190867319738" y2="-126.56487272733656" stroke-width="5" stroke="#214076" stroke-linecap="round"></line><line x1="419.23092466913886" x2="391.6767106645017" y1="-154.1190867319738" y2="-126.56487272733656" stroke-width="5" stroke="#214076" stroke-linecap="round"></line><line x1="675.2309246691389" x2="647.6767106645017" y1="-154.1190867319738" y2="-126.56487272733656" stroke-width="5" stroke="#214076" stroke-linecap="round"></line><line x1="163.2309246691389" x2="135.67671066450166" y1="101.8809132680262" y2="129.43512727266344" stroke-width="5" stroke="#214076" stroke-linecap="round"></line><line x1="419.23092466913886" x2="391.6767106645017" y1="101.8809132680262" y2="129.43512727266344" stroke-width="5" stroke="#214076" stroke-linecap="round"></line><line x1="675.2309246691389" x2="647.6767106645017" y1="101.8809132680262" y2="129.43512727266344" stroke-width="5" stroke="#214076" stroke-linecap="round"></line><line x1="182.85899508911857" x2="170.1557450295377" y1="214.37577136961974" y2="227.0790214292006" stroke-width="5" stroke="#214076" stroke-linecap="round"></line><line x1="182.85899508911857" x2="170.1557450295377" y1="-297.62422863038023" y2="-284.92097857079943" stroke-width="5" stroke="#214076" stroke-linecap="round"></line><line x1="438.8589950891186" x2="426.1557450295377" y1="-297.62422863038023" y2="-284.92097857079943" stroke-width="5" stroke="#214076" stroke-linecap="round"></line><line x1="694.8589950891186" x2="682.1557450295377" y1="-297.62422863038023" y2="-284.92097857079943" stroke-width="5" stroke="#214076" stroke-linecap="round"></line><line x1="182.85899508911857" x2="170.1557450295377" y1="-41.62422863038026" y2="-28.920978570799406" stroke-width="5" stroke="#214076" stroke-linecap="round"></line><line x1="438.8589950891186" x2="426.1557450295377" y1="-41.62422863038026" y2="-28.920978570799406" stroke-width="5" stroke="#214076" stroke-linecap="round"></line><line x1="694.8589950891186" x2="682.1557450295377" y1="-41.62422863038026" y2="-28.920978570799406" stroke-width="5" stroke="#214076" stroke-linecap="round"></line><line x1="182.85899508911857" x2="170.1557450295377" y1="214.37577136961974" y2="227.0790214292006" stroke-width="5" stroke="#214076" stroke-linecap="round"></line><line x1="438.8589950891186" x2="426.1557450295377" y1="214.37577136961974" y2="227.0790214292006" stroke-width="5" stroke="#214076" stroke-linecap="round"></line><line x1="694.8589950891186" x2="682.1557450295377" y1="214.37577136961974" y2="227.0790214292006" stroke-width="5" stroke="#214076" stroke-linecap="round"></line><line x1="71.55214248108297" x2="52.81202436987388" y1="136.09097547561635" y2="154.83109358682543" stroke-width="5" stroke="#214076" stroke-linecap="round"></line><line x1="71.55214248108297" x2="52.81202436987388" y1="-375.90902452438365" y2="-357.16890641317457" stroke-width="5" stroke="#214076" stroke-linecap="round"></line><line x1="327.55214248108297" x2="308.8120243698739" y1="-375.90902452438365" y2="-357.16890641317457" stroke-width="5" stroke="#214076" stroke-linecap="round"></line><line x1="583.5521424810829" x2="564.8120243698738" y1="-375.90902452438365" y2="-357.16890641317457" stroke-width="5" stroke="#214076" stroke-linecap="round"></line><line x1="71.55214248108297" x2="52.81202436987388" y1="-119.90902452438365" y2="-101.16890641317457" stroke-width="5" stroke="#214076" stroke-linecap="round"></line><line x1="327.55214248108297" x2="308.8120243698739" y1="-119.90902452438365" y2="-101.16890641317457" stroke-width="5" stroke="#214076" stroke-linecap="round"></line><line x1="583.5521424810829" x2="564.8120243698738" y1="-119.90902452438365" y2="-101.16890641317457" stroke-width="5" stroke="#214076" stroke-linecap="round"></line><line x1="71.55214248108297" x2="52.81202436987388" y1="136.09097547561635" y2="154.83109358682543" stroke-width="5" stroke="#214076" stroke-linecap="round"></line><line x1="327.55214248108297" x2="308.8120243698739" y1="136.09097547561635" y2="154.83109358682543" stroke-width="5" stroke="#214076" stroke-linecap="round"></line><line x1="583.5521424810829" x2="564.8120243698738" y1="136.09097547561635" y2="154.83109358682543" stroke-width="5" stroke="#214076" stroke-linecap="round"></line><line x1="184.4065150387637" x2="161.52579810186023" y1="81.31355552466744" y2="104.1942724615709" stroke-width="5" stroke="#214076" stroke-linecap="round"></line><line x1="184.4065150387637" x2="161.52579810186023" y1="-430.68644447533256" y2="-407.8057275384291" stroke-width="5" stroke="#214076" stroke-linecap="round"></line><line x1="440.4065150387637" x2="417.52579810186023" y1="-430.68644447533256" y2="-407.8057275384291" stroke-width="5" stroke="#214076" stroke-linecap="round"></line><line x1="696.4065150387637" x2="673.5257981018602" y1="-430.68644447533256" y2="-407.8057275384291" stroke-width="5" stroke="#214076" stroke-linecap="round"></line><line x1="184.4065150387637" x2="161.52579810186023" y1="-174.68644447533256" y2="-151.8057275384291" stroke-width="5" stroke="#214076" stroke-linecap="round"></line><line x1="440.4065150387637" x2="417.52579810186023" y1="-174.68644447533256" y2="-151.8057275384291" stroke-width="5" stroke="#214076" stroke-linecap="round"></line><line x1="696.4065150387637" x2="673.5257981018602" y1="-174.68644447533256" y2="-151.8057275384291" stroke-width="5" stroke="#214076" stroke-linecap="round"></line><line x1="184.4065150387637" x2="161.52579810186023" y1="81.31355552466744" y2="104.1942724615709" stroke-width="5" stroke="#214076" stroke-linecap="round"></line><line x1="440.4065150387637" x2="417.52579810186023" y1="81.31355552466744" y2="104.1942724615709" stroke-width="5" stroke="#214076" stroke-linecap="round"></line><line x1="696.4065150387637" x2="673.5257981018602" y1="81.31355552466744" y2="104.1942724615709" stroke-width="5" stroke="#214076" stroke-linecap="round"></line><line x1="10.669564313314421" x2="-9.65257666168787" y1="60.45080151182981" y2="80.77294248683211" stroke-width="5" stroke="#214076" stroke-linecap="round"></line><line x1="10.669564313314421" x2="-9.65257666168787" y1="-451.5491984881702" y2="-431.2270575131679" stroke-width="5" stroke="#214076" stroke-linecap="round"></line><line x1="266.6695643133144" x2="246.34742333831213" y1="-451.5491984881702" y2="-431.2270575131679" stroke-width="5" stroke="#214076" stroke-linecap="round"></line><line x1="522.6695643133144" x2="502.3474233383121" y1="-451.5491984881702" y2="-431.2270575131679" stroke-width="5" stroke="#214076" stroke-linecap="round"></line><line x1="10.669564313314421" x2="-9.65257666168787" y1="-195.5491984881702" y2="-175.2270575131679" stroke-width="5" stroke="#214076" stroke-linecap="round"></line><line x1="266.6695643133144" x2="246.34742333831213" y1="-195.5491984881702" y2="-175.2270575131679" stroke-width="5" stroke="#214076" stroke-linecap="round"></line><line x1="522.6695643133144" x2="502.3474233383121" y1="-195.5491984881702" y2="-175.2270575131679" stroke-width="5" stroke="#214076" stroke-linecap="round"></line><line x1="10.669564313314421" x2="-9.65257666168787" y1="60.45080151182981" y2="80.77294248683211" stroke-width="5" stroke="#214076" stroke-linecap="round"></line><line x1="266.6695643133144" x2="246.34742333831213" y1="60.45080151182981" y2="80.77294248683211" stroke-width="5" stroke="#214076" stroke-linecap="round"></line><line x1="522.6695643133144" x2="502.3474233383121" y1="60.45080151182981" y2="80.77294248683211" stroke-width="5" stroke="#214076" stroke-linecap="round"></line><line x1="17.022745249600806" x2="-3.9165284813091183" y1="54.23092049727694" y2="75.17019422818686" stroke-width="5" stroke="#214076" stroke-linecap="round"></line><line x1="17.022745249600806" x2="-3.9165284813091183" y1="-457.76907950272306" y2="-436.82980577181314" stroke-width="5" stroke="#214076" stroke-linecap="round"></line><line x1="273.0227452496008" x2="252.08347151869089" y1="-457.76907950272306" y2="-436.82980577181314" stroke-width="5" stroke="#214076" stroke-linecap="round"></line><line x1="529.0227452496008" x2="508.0834715186909" y1="-457.76907950272306" y2="-436.82980577181314" stroke-width="5" stroke="#214076" stroke-linecap="round"></line><line x1="17.022745249600806" x2="-3.9165284813091183" y1="-201.76907950272306" y2="-180.82980577181314" stroke-width="5" stroke="#214076" stroke-linecap="round"></line><line x1="273.0227452496008" x2="252.08347151869089" y1="-201.76907950272306" y2="-180.82980577181314" stroke-width="5" stroke="#214076" stroke-linecap="round"></line><line x1="529.0227452496008" x2="508.0834715186909" y1="-201.76907950272306" y2="-180.82980577181314" stroke-width="5" stroke="#214076" stroke-linecap="round"></line><line x1="17.022745249600806" x2="-3.9165284813091183" y1="54.23092049727694" y2="75.17019422818686" stroke-width="5" stroke="#214076" stroke-linecap="round"></line><line x1="273.0227452496008" x2="252.08347151869089" y1="54.23092049727694" y2="75.17019422818686" stroke-width="5" stroke="#214076" stroke-linecap="round"></line><line x1="529.0227452496008" x2="508.0834715186909" y1="54.23092049727694" y2="75.17019422818686" stroke-width="5" stroke="#214076" stroke-linecap="round"></line><line x1="133.08457160532504" x2="120.24771344813489" y1="87.69468054034967" y2="100.53153869753983" stroke-width="5" stroke="#214076" stroke-linecap="round"></line><line x1="133.08457160532504" x2="120.24771344813489" y1="-424.3053194596503" y2="-411.4684613024602" stroke-width="5" stroke="#214076" stroke-linecap="round"></line><line x1="389.08457160532504" x2="376.2477134481349" y1="-424.3053194596503" y2="-411.4684613024602" stroke-width="5" stroke="#214076" stroke-linecap="round"></line><line x1="645.084571605325" x2="632.2477134481348" y1="-424.3053194596503" y2="-411.4684613024602" stroke-width="5" stroke="#214076" stroke-linecap="round"></line><line x1="133.08457160532504" x2="120.24771344813489" y1="-168.30531945965032" y2="-155.46846130246018" stroke-width="5" stroke="#214076" stroke-linecap="round"></line><line x1="389.08457160532504" x2="376.2477134481349" y1="-168.30531945965032" y2="-155.46846130246018" stroke-width="5" stroke="#214076" stroke-linecap="round"></line><line x1="645.084571605325" x2="632.2477134481348" y1="-168.30531945965032" y2="-155.46846130246018" stroke-width="5" stroke="#214076" stroke-linecap="round"></line><line x1="133.08457160532504" x2="120.24771344813489" y1="87.69468054034967" y2="100.53153869753983" stroke-width="5" stroke="#214076" stroke-linecap="round"></line><line x1="389.08457160532504" x2="376.2477134481349" y1="87.69468054034967" y2="100.53153869753983" stroke-width="5" stroke="#214076" stroke-linecap="round"></line><line x1="645.084571605325" x2="632.2477134481348" y1="87.69468054034967" y2="100.53153869753983" stroke-width="5" stroke="#214076" stroke-linecap="round"></line>
  <animateTransform attributeName="transform" type="translate" values="0 0;-256 256" keyTimes="0;1" repeatCount="indefinite" dur="7.692307692307692s"></animateTransform>
</g><g>
  <line x1="31.621312469743362" x2="23.585573559343697" y1="-0.7483358991093949" y2="7.287403011290269" stroke-width="5" stroke="#5a6a92" stroke-linecap="round"></line><line x1="31.621312469743362" x2="23.585573559343697" y1="-512.7483358991094" y2="-504.7125969887097" stroke-width="5" stroke="#5a6a92" stroke-linecap="round"></line><line x1="287.6213124697434" x2="279.5855735593437" y1="-512.7483358991094" y2="-504.7125969887097" stroke-width="5" stroke="#5a6a92" stroke-linecap="round"></line><line x1="543.6213124697433" x2="535.5855735593437" y1="-512.7483358991094" y2="-504.7125969887097" stroke-width="5" stroke="#5a6a92" stroke-linecap="round"></line><line x1="31.621312469743362" x2="23.585573559343697" y1="-256.7483358991094" y2="-248.71259698870972" stroke-width="5" stroke="#5a6a92" stroke-linecap="round"></line><line x1="287.6213124697434" x2="279.5855735593437" y1="-256.7483358991094" y2="-248.71259698870972" stroke-width="5" stroke="#5a6a92" stroke-linecap="round"></line><line x1="543.6213124697433" x2="535.5855735593437" y1="-256.7483358991094" y2="-248.71259698870972" stroke-width="5" stroke="#5a6a92" stroke-linecap="round"></line><line x1="31.621312469743362" x2="23.585573559343697" y1="-0.7483358991093949" y2="7.287403011290269" stroke-width="5" stroke="#5a6a92" stroke-linecap="round"></line><line x1="287.6213124697434" x2="279.5855735593437" y1="-0.7483358991093949" y2="7.287403011290269" stroke-width="5" stroke="#5a6a92" stroke-linecap="round"></line><line x1="543.6213124697433" x2="535.5855735593437" y1="-0.7483358991093949" y2="7.287403011290269" stroke-width="5" stroke="#5a6a92" stroke-linecap="round"></line><line x1="31.621312469743362" x2="23.585573559343697" y1="255.2516641008906" y2="263.2874030112903" stroke-width="5" stroke="#5a6a92" stroke-linecap="round"></line><line x1="248.14533429587684" x2="233.37122993675362" y1="8.975060592873968" y2="23.749164951997194" stroke-width="5" stroke="#5a6a92" stroke-linecap="round"></line><line x1="248.14533429587684" x2="233.37122993675362" y1="-503.02493940712606" y2="-488.2508350480028" stroke-width="5" stroke="#5a6a92" stroke-linecap="round"></line><line x1="504.14533429587686" x2="489.3712299367536" y1="-503.02493940712606" y2="-488.2508350480028" stroke-width="5" stroke="#5a6a92" stroke-linecap="round"></line><line x1="760.1453342958769" x2="745.3712299367536" y1="-503.02493940712606" y2="-488.2508350480028" stroke-width="5" stroke="#5a6a92" stroke-linecap="round"></line><line x1="248.14533429587684" x2="233.37122993675362" y1="-247.02493940712603" y2="-232.2508350480028" stroke-width="5" stroke="#5a6a92" stroke-linecap="round"></line><line x1="504.14533429587686" x2="489.3712299367536" y1="-247.02493940712603" y2="-232.2508350480028" stroke-width="5" stroke="#5a6a92" stroke-linecap="round"></line><line x1="760.1453342958769" x2="745.3712299367536" y1="-247.02493940712603" y2="-232.2508350480028" stroke-width="5" stroke="#5a6a92" stroke-linecap="round"></line><line x1="248.14533429587684" x2="233.37122993675362" y1="8.975060592873968" y2="23.749164951997194" stroke-width="5" stroke="#5a6a92" stroke-linecap="round"></line><line x1="504.14533429587686" x2="489.3712299367536" y1="8.975060592873968" y2="23.749164951997194" stroke-width="5" stroke="#5a6a92" stroke-linecap="round"></line><line x1="760.1453342958769" x2="745.3712299367536" y1="8.975060592873968" y2="23.749164951997194" stroke-width="5" stroke="#5a6a92" stroke-linecap="round"></line><line x1="224.6751542162159" x2="209.79485455299186" y1="122.20395598209586" y2="137.0842556453199" stroke-width="5" stroke="#5a6a92" stroke-linecap="round"></line><line x1="224.6751542162159" x2="209.79485455299186" y1="-389.79604401790414" y2="-374.9157443546801" stroke-width="5" stroke="#5a6a92" stroke-linecap="round"></line><line x1="480.6751542162159" x2="465.79485455299186" y1="-389.79604401790414" y2="-374.9157443546801" stroke-width="5" stroke="#5a6a92" stroke-linecap="round"></line><line x1="736.6751542162159" x2="721.7948545529919" y1="-389.79604401790414" y2="-374.9157443546801" stroke-width="5" stroke="#5a6a92" stroke-linecap="round"></line><line x1="224.6751542162159" x2="209.79485455299186" y1="-133.79604401790414" y2="-118.9157443546801" stroke-width="5" stroke="#5a6a92" stroke-linecap="round"></line><line x1="480.6751542162159" x2="465.79485455299186" y1="-133.79604401790414" y2="-118.9157443546801" stroke-width="5" stroke="#5a6a92" stroke-linecap="round"></line><line x1="736.6751542162159" x2="721.7948545529919" y1="-133.79604401790414" y2="-118.9157443546801" stroke-width="5" stroke="#5a6a92" stroke-linecap="round"></line><line x1="224.6751542162159" x2="209.79485455299186" y1="122.20395598209586" y2="137.0842556453199" stroke-width="5" stroke="#5a6a92" stroke-linecap="round"></line><line x1="480.6751542162159" x2="465.79485455299186" y1="122.20395598209586" y2="137.0842556453199" stroke-width="5" stroke="#5a6a92" stroke-linecap="round"></line><line x1="736.6751542162159" x2="721.7948545529919" y1="122.20395598209586" y2="137.0842556453199" stroke-width="5" stroke="#5a6a92" stroke-linecap="round"></line><line x1="259.92218949002" x2="245.17850683367564" y1="59.46561923912415" y2="74.20930189546849" stroke-width="5" stroke="#5a6a92" stroke-linecap="round"></line><line x1="259.92218949002" x2="245.17850683367564" y1="-452.5343807608758" y2="-437.79069810453154" stroke-width="5" stroke="#5a6a92" stroke-linecap="round"></line><line x1="515.92218949002" x2="501.17850683367567" y1="-452.5343807608758" y2="-437.79069810453154" stroke-width="5" stroke="#5a6a92" stroke-linecap="round"></line><line x1="771.92218949002" x2="757.1785068336757" y1="-452.5343807608758" y2="-437.79069810453154" stroke-width="5" stroke="#5a6a92" stroke-linecap="round"></line><line x1="259.92218949002" x2="245.17850683367564" y1="-196.53438076087585" y2="-181.79069810453151" stroke-width="5" stroke="#5a6a92" stroke-linecap="round"></line><line x1="515.92218949002" x2="501.17850683367567" y1="-196.53438076087585" y2="-181.79069810453151" stroke-width="5" stroke="#5a6a92" stroke-linecap="round"></line><line x1="771.92218949002" x2="757.1785068336757" y1="-196.53438076087585" y2="-181.79069810453151" stroke-width="5" stroke="#5a6a92" stroke-linecap="round"></line><line x1="259.92218949002" x2="245.17850683367564" y1="59.46561923912415" y2="74.20930189546849" stroke-width="5" stroke="#5a6a92" stroke-linecap="round"></line><line x1="515.92218949002" x2="501.17850683367567" y1="59.46561923912415" y2="74.20930189546849" stroke-width="5" stroke="#5a6a92" stroke-linecap="round"></line><line x1="771.92218949002" x2="757.1785068336757" y1="59.46561923912415" y2="74.20930189546849" stroke-width="5" stroke="#5a6a92" stroke-linecap="round"></line><line x1="3.9221894900200027" x2="-10.821493166324359" y1="59.46561923912415" y2="74.20930189546849" stroke-width="5" stroke="#5a6a92" stroke-linecap="round"></line><line x1="66.64688167478174" x2="37.0619397658403" y1="116.20933861087629" y2="145.79428051981773" stroke-width="5" stroke="#5a6a92" stroke-linecap="round"></line><line x1="66.64688167478174" x2="37.0619397658403" y1="-395.7906613891237" y2="-366.20571948018227" stroke-width="5" stroke="#5a6a92" stroke-linecap="round"></line><line x1="322.64688167478175" x2="293.0619397658403" y1="-395.7906613891237" y2="-366.20571948018227" stroke-width="5" stroke="#5a6a92" stroke-linecap="round"></line><line x1="578.6468816747818" x2="549.0619397658403" y1="-395.7906613891237" y2="-366.20571948018227" stroke-width="5" stroke="#5a6a92" stroke-linecap="round"></line><line x1="66.64688167478174" x2="37.0619397658403" y1="-139.79066138912373" y2="-110.20571948018227" stroke-width="5" stroke="#5a6a92" stroke-linecap="round"></line><line x1="322.64688167478175" x2="293.0619397658403" y1="-139.79066138912373" y2="-110.20571948018227" stroke-width="5" stroke="#5a6a92" stroke-linecap="round"></line><line x1="578.6468816747818" x2="549.0619397658403" y1="-139.79066138912373" y2="-110.20571948018227" stroke-width="5" stroke="#5a6a92" stroke-linecap="round"></line><line x1="66.64688167478174" x2="37.0619397658403" y1="116.20933861087629" y2="145.79428051981773" stroke-width="5" stroke="#5a6a92" stroke-linecap="round"></line><line x1="322.64688167478175" x2="293.0619397658403" y1="116.20933861087629" y2="145.79428051981773" stroke-width="5" stroke="#5a6a92" stroke-linecap="round"></line><line x1="578.6468816747818" x2="549.0619397658403" y1="116.20933861087629" y2="145.79428051981773" stroke-width="5" stroke="#5a6a92" stroke-linecap="round"></line><line x1="200.46138890091126" x2="171.72997838297513" y1="181.73596594644115" y2="210.46737646437728" stroke-width="5" stroke="#5a6a92" stroke-linecap="round"></line><line x1="200.46138890091126" x2="171.72997838297513" y1="-330.2640340535588" y2="-301.53262353562275" stroke-width="5" stroke="#5a6a92" stroke-linecap="round"></line><line x1="456.4613889009113" x2="427.7299783829751" y1="-330.2640340535588" y2="-301.53262353562275" stroke-width="5" stroke="#5a6a92" stroke-linecap="round"></line><line x1="712.4613889009113" x2="683.7299783829751" y1="-330.2640340535588" y2="-301.53262353562275" stroke-width="5" stroke="#5a6a92" stroke-linecap="round"></line><line x1="200.46138890091126" x2="171.72997838297513" y1="-74.26403405355885" y2="-45.53262353562272" stroke-width="5" stroke="#5a6a92" stroke-linecap="round"></line><line x1="456.4613889009113" x2="427.7299783829751" y1="-74.26403405355885" y2="-45.53262353562272" stroke-width="5" stroke="#5a6a92" stroke-linecap="round"></line><line x1="712.4613889009113" x2="683.7299783829751" y1="-74.26403405355885" y2="-45.53262353562272" stroke-width="5" stroke="#5a6a92" stroke-linecap="round"></line><line x1="200.46138890091126" x2="171.72997838297513" y1="181.73596594644115" y2="210.46737646437728" stroke-width="5" stroke="#5a6a92" stroke-linecap="round"></line><line x1="456.4613889009113" x2="427.7299783829751" y1="181.73596594644115" y2="210.46737646437728" stroke-width="5" stroke="#5a6a92" stroke-linecap="round"></line><line x1="712.4613889009113" x2="683.7299783829751" y1="181.73596594644115" y2="210.46737646437728" stroke-width="5" stroke="#5a6a92" stroke-linecap="round"></line><line x1="138.85531986222807" x2="130.2300351909856" y1="-0.37582618604128637" y2="8.249458485201195" stroke-width="5" stroke="#5a6a92" stroke-linecap="round"></line><line x1="138.85531986222807" x2="130.2300351909856" y1="-512.3758261860413" y2="-503.7505415147988" stroke-width="5" stroke="#5a6a92" stroke-linecap="round"></line><line x1="394.85531986222804" x2="386.23003519098563" y1="-512.3758261860413" y2="-503.7505415147988" stroke-width="5" stroke="#5a6a92" stroke-linecap="round"></line><line x1="650.855319862228" x2="642.2300351909856" y1="-512.3758261860413" y2="-503.7505415147988" stroke-width="5" stroke="#5a6a92" stroke-linecap="round"></line><line x1="138.85531986222807" x2="130.2300351909856" y1="-256.3758261860413" y2="-247.7505415147988" stroke-width="5" stroke="#5a6a92" stroke-linecap="round"></line><line x1="394.85531986222804" x2="386.23003519098563" y1="-256.3758261860413" y2="-247.7505415147988" stroke-width="5" stroke="#5a6a92" stroke-linecap="round"></line><line x1="650.855319862228" x2="642.2300351909856" y1="-256.3758261860413" y2="-247.7505415147988" stroke-width="5" stroke="#5a6a92" stroke-linecap="round"></line><line x1="138.85531986222807" x2="130.2300351909856" y1="-0.37582618604128637" y2="8.249458485201195" stroke-width="5" stroke="#5a6a92" stroke-linecap="round"></line><line x1="394.85531986222804" x2="386.23003519098563" y1="-0.37582618604128637" y2="8.249458485201195" stroke-width="5" stroke="#5a6a92" stroke-linecap="round"></line><line x1="650.855319862228" x2="642.2300351909856" y1="-0.37582618604128637" y2="8.249458485201195" stroke-width="5" stroke="#5a6a92" stroke-linecap="round"></line><line x1="138.85531986222807" x2="130.2300351909856" y1="255.62417381395872" y2="264.2494584852012" stroke-width="5" stroke="#5a6a92" stroke-linecap="round"></line><line x1="204.59202798316306" x2="174.8626395900481" y1="125.27149972157297" y2="155.00088811468794" stroke-width="5" stroke="#5a6a92" stroke-linecap="round"></line><line x1="204.59202798316306" x2="174.8626395900481" y1="-386.728500278427" y2="-356.99911188531206" stroke-width="5" stroke="#5a6a92" stroke-linecap="round"></line><line x1="460.59202798316306" x2="430.8626395900481" y1="-386.728500278427" y2="-356.99911188531206" stroke-width="5" stroke="#5a6a92" stroke-linecap="round"></line><line x1="716.592027983163" x2="686.862639590048" y1="-386.728500278427" y2="-356.99911188531206" stroke-width="5" stroke="#5a6a92" stroke-linecap="round"></line><line x1="204.59202798316306" x2="174.8626395900481" y1="-130.72850027842702" y2="-100.99911188531206" stroke-width="5" stroke="#5a6a92" stroke-linecap="round"></line><line x1="460.59202798316306" x2="430.8626395900481" y1="-130.72850027842702" y2="-100.99911188531206" stroke-width="5" stroke="#5a6a92" stroke-linecap="round"></line><line x1="716.592027983163" x2="686.862639590048" y1="-130.72850027842702" y2="-100.99911188531206" stroke-width="5" stroke="#5a6a92" stroke-linecap="round"></line><line x1="204.59202798316306" x2="174.8626395900481" y1="125.27149972157297" y2="155.00088811468794" stroke-width="5" stroke="#5a6a92" stroke-linecap="round"></line><line x1="460.59202798316306" x2="430.8626395900481" y1="125.27149972157297" y2="155.00088811468794" stroke-width="5" stroke="#5a6a92" stroke-linecap="round"></line><line x1="716.592027983163" x2="686.862639590048" y1="125.27149972157297" y2="155.00088811468794" stroke-width="5" stroke="#5a6a92" stroke-linecap="round"></line><line x1="120.28154716062731" x2="105.5929642377808" y1="70.97994006595418" y2="85.66852298880069" stroke-width="5" stroke="#5a6a92" stroke-linecap="round"></line><line x1="120.28154716062731" x2="105.5929642377808" y1="-441.02005993404583" y2="-426.3314770111993" stroke-width="5" stroke="#5a6a92" stroke-linecap="round"></line><line x1="376.2815471606273" x2="361.5929642377808" y1="-441.02005993404583" y2="-426.3314770111993" stroke-width="5" stroke="#5a6a92" stroke-linecap="round"></line><line x1="632.2815471606273" x2="617.5929642377808" y1="-441.02005993404583" y2="-426.3314770111993" stroke-width="5" stroke="#5a6a92" stroke-linecap="round"></line><line x1="120.28154716062731" x2="105.5929642377808" y1="-185.02005993404583" y2="-170.3314770111993" stroke-width="5" stroke="#5a6a92" stroke-linecap="round"></line><line x1="376.2815471606273" x2="361.5929642377808" y1="-185.02005993404583" y2="-170.3314770111993" stroke-width="5" stroke="#5a6a92" stroke-linecap="round"></line><line x1="632.2815471606273" x2="617.5929642377808" y1="-185.02005993404583" y2="-170.3314770111993" stroke-width="5" stroke="#5a6a92" stroke-linecap="round"></line><line x1="120.28154716062731" x2="105.5929642377808" y1="70.97994006595418" y2="85.66852298880069" stroke-width="5" stroke="#5a6a92" stroke-linecap="round"></line><line x1="376.2815471606273" x2="361.5929642377808" y1="70.97994006595418" y2="85.66852298880069" stroke-width="5" stroke="#5a6a92" stroke-linecap="round"></line><line x1="632.2815471606273" x2="617.5929642377808" y1="70.97994006595418" y2="85.66852298880069" stroke-width="5" stroke="#5a6a92" stroke-linecap="round"></line><line x1="241.64908488692538" x2="225.36331123525179" y1="190.7347157791787" y2="207.0204894308523" stroke-width="5" stroke="#5a6a92" stroke-linecap="round"></line><line x1="241.64908488692538" x2="225.36331123525179" y1="-321.2652842208213" y2="-304.9795105691477" stroke-width="5" stroke="#5a6a92" stroke-linecap="round"></line><line x1="497.6490848869254" x2="481.3633112352518" y1="-321.2652842208213" y2="-304.9795105691477" stroke-width="5" stroke="#5a6a92" stroke-linecap="round"></line><line x1="753.6490848869254" x2="737.3633112352518" y1="-321.2652842208213" y2="-304.9795105691477" stroke-width="5" stroke="#5a6a92" stroke-linecap="round"></line><line x1="241.64908488692538" x2="225.36331123525179" y1="-65.26528422082129" y2="-48.97951056914769" stroke-width="5" stroke="#5a6a92" stroke-linecap="round"></line><line x1="497.6490848869254" x2="481.3633112352518" y1="-65.26528422082129" y2="-48.97951056914769" stroke-width="5" stroke="#5a6a92" stroke-linecap="round"></line><line x1="753.6490848869254" x2="737.3633112352518" y1="-65.26528422082129" y2="-48.97951056914769" stroke-width="5" stroke="#5a6a92" stroke-linecap="round"></line><line x1="241.64908488692538" x2="225.36331123525179" y1="190.7347157791787" y2="207.0204894308523" stroke-width="5" stroke="#5a6a92" stroke-linecap="round"></line><line x1="497.6490848869254" x2="481.3633112352518" y1="190.7347157791787" y2="207.0204894308523" stroke-width="5" stroke="#5a6a92" stroke-linecap="round"></line><line x1="753.6490848869254" x2="737.3633112352518" y1="190.7347157791787" y2="207.0204894308523" stroke-width="5" stroke="#5a6a92" stroke-linecap="round"></line>
  <animateTransform attributeName="transform" type="translate" values="0 0;-256 256" keyTimes="0;1" repeatCount="indefinite" dur="3.846153846153846s"></animateTransform>
</g><g>
  <line x1="77.78133096142788" x2="51.536817695957225" y1="223.7129019901331" y2="249.9574152556038" stroke-width="5" stroke="#849ecb" stroke-linecap="round"></line><line x1="77.78133096142788" x2="51.536817695957225" y1="-288.2870980098669" y2="-262.0425847443962" stroke-width="5" stroke="#849ecb" stroke-linecap="round"></line><line x1="333.7813309614279" x2="307.5368176959572" y1="-288.2870980098669" y2="-262.0425847443962" stroke-width="5" stroke="#849ecb" stroke-linecap="round"></line><line x1="589.7813309614279" x2="563.5368176959572" y1="-288.2870980098669" y2="-262.0425847443962" stroke-width="5" stroke="#849ecb" stroke-linecap="round"></line><line x1="77.78133096142788" x2="51.536817695957225" y1="-32.287098009866895" y2="-6.042584744396208" stroke-width="5" stroke="#849ecb" stroke-linecap="round"></line><line x1="333.7813309614279" x2="307.5368176959572" y1="-32.287098009866895" y2="-6.042584744396208" stroke-width="5" stroke="#849ecb" stroke-linecap="round"></line><line x1="589.7813309614279" x2="563.5368176959572" y1="-32.287098009866895" y2="-6.042584744396208" stroke-width="5" stroke="#849ecb" stroke-linecap="round"></line><line x1="77.78133096142788" x2="51.536817695957225" y1="223.7129019901331" y2="249.9574152556038" stroke-width="5" stroke="#849ecb" stroke-linecap="round"></line><line x1="333.7813309614279" x2="307.5368176959572" y1="223.7129019901331" y2="249.9574152556038" stroke-width="5" stroke="#849ecb" stroke-linecap="round"></line><line x1="589.7813309614279" x2="563.5368176959572" y1="223.7129019901331" y2="249.9574152556038" stroke-width="5" stroke="#849ecb" stroke-linecap="round"></line><line x1="186.17026389350067" x2="158.67386216395275" y1="16.58204011264136" y2="44.07844184218927" stroke-width="5" stroke="#849ecb" stroke-linecap="round"></line><line x1="186.17026389350067" x2="158.67386216395275" y1="-495.4179598873586" y2="-467.92155815781075" stroke-width="5" stroke="#849ecb" stroke-linecap="round"></line><line x1="442.17026389350065" x2="414.6738621639528" y1="-495.4179598873586" y2="-467.92155815781075" stroke-width="5" stroke="#849ecb" stroke-linecap="round"></line><line x1="698.1702638935006" x2="670.6738621639528" y1="-495.4179598873586" y2="-467.92155815781075" stroke-width="5" stroke="#849ecb" stroke-linecap="round"></line><line x1="186.17026389350067" x2="158.67386216395275" y1="-239.41795988735865" y2="-211.92155815781072" stroke-width="5" stroke="#849ecb" stroke-linecap="round"></line><line x1="442.17026389350065" x2="414.6738621639528" y1="-239.41795988735865" y2="-211.92155815781072" stroke-width="5" stroke="#849ecb" stroke-linecap="round"></line><line x1="698.1702638935006" x2="670.6738621639528" y1="-239.41795988735865" y2="-211.92155815781072" stroke-width="5" stroke="#849ecb" stroke-linecap="round"></line><line x1="186.17026389350067" x2="158.67386216395275" y1="16.58204011264136" y2="44.07844184218927" stroke-width="5" stroke="#849ecb" stroke-linecap="round"></line><line x1="442.17026389350065" x2="414.6738621639528" y1="16.58204011264136" y2="44.07844184218927" stroke-width="5" stroke="#849ecb" stroke-linecap="round"></line><line x1="698.1702638935006" x2="670.6738621639528" y1="16.58204011264136" y2="44.07844184218927" stroke-width="5" stroke="#849ecb" stroke-linecap="round"></line><line x1="88.63380291502716" x2="79.65536911556984" y1="14.971699778476413" y2="23.950133577933748" stroke-width="5" stroke="#849ecb" stroke-linecap="round"></line><line x1="88.63380291502716" x2="79.65536911556984" y1="-497.0283002215236" y2="-488.04986642206626" stroke-width="5" stroke="#849ecb" stroke-linecap="round"></line><line x1="344.63380291502716" x2="335.65536911556984" y1="-497.0283002215236" y2="-488.04986642206626" stroke-width="5" stroke="#849ecb" stroke-linecap="round"></line><line x1="600.6338029150272" x2="591.6553691155698" y1="-497.0283002215236" y2="-488.04986642206626" stroke-width="5" stroke="#849ecb" stroke-linecap="round"></line><line x1="88.63380291502716" x2="79.65536911556984" y1="-241.02830022152358" y2="-232.04986642206626" stroke-width="5" stroke="#849ecb" stroke-linecap="round"></line><line x1="344.63380291502716" x2="335.65536911556984" y1="-241.02830022152358" y2="-232.04986642206626" stroke-width="5" stroke="#849ecb" stroke-linecap="round"></line><line x1="600.6338029150272" x2="591.6553691155698" y1="-241.02830022152358" y2="-232.04986642206626" stroke-width="5" stroke="#849ecb" stroke-linecap="round"></line><line x1="88.63380291502716" x2="79.65536911556984" y1="14.971699778476413" y2="23.950133577933748" stroke-width="5" stroke="#849ecb" stroke-linecap="round"></line><line x1="344.63380291502716" x2="335.65536911556984" y1="14.971699778476413" y2="23.950133577933748" stroke-width="5" stroke="#849ecb" stroke-linecap="round"></line><line x1="600.6338029150272" x2="591.6553691155698" y1="14.971699778476413" y2="23.950133577933748" stroke-width="5" stroke="#849ecb" stroke-linecap="round"></line><line x1="87.01244641837235" x2="66.1019390341292" y1="54.168268919756606" y2="75.07877630399975" stroke-width="5" stroke="#849ecb" stroke-linecap="round"></line><line x1="87.01244641837235" x2="66.1019390341292" y1="-457.8317310802434" y2="-436.92122369600025" stroke-width="5" stroke="#849ecb" stroke-linecap="round"></line><line x1="343.01244641837235" x2="322.1019390341292" y1="-457.8317310802434" y2="-436.92122369600025" stroke-width="5" stroke="#849ecb" stroke-linecap="round"></line><line x1="599.0124464183723" x2="578.1019390341291" y1="-457.8317310802434" y2="-436.92122369600025" stroke-width="5" stroke="#849ecb" stroke-linecap="round"></line><line x1="87.01244641837235" x2="66.1019390341292" y1="-201.8317310802434" y2="-180.92122369600025" stroke-width="5" stroke="#849ecb" stroke-linecap="round"></line><line x1="343.01244641837235" x2="322.1019390341292" y1="-201.8317310802434" y2="-180.92122369600025" stroke-width="5" stroke="#849ecb" stroke-linecap="round"></line><line x1="599.0124464183723" x2="578.1019390341291" y1="-201.8317310802434" y2="-180.92122369600025" stroke-width="5" stroke="#849ecb" stroke-linecap="round"></line><line x1="87.01244641837235" x2="66.1019390341292" y1="54.168268919756606" y2="75.07877630399975" stroke-width="5" stroke="#849ecb" stroke-linecap="round"></line><line x1="343.01244641837235" x2="322.1019390341292" y1="54.168268919756606" y2="75.07877630399975" stroke-width="5" stroke="#849ecb" stroke-linecap="round"></line><line x1="599.0124464183723" x2="578.1019390341291" y1="54.168268919756606" y2="75.07877630399975" stroke-width="5" stroke="#849ecb" stroke-linecap="round"></line><line x1="192.2706077025643" x2="173.6373125912026" y1="25.802190345503167" y2="44.43548545686485" stroke-width="5" stroke="#849ecb" stroke-linecap="round"></line><line x1="192.2706077025643" x2="173.6373125912026" y1="-486.19780965449684" y2="-467.56451454313515" stroke-width="5" stroke="#849ecb" stroke-linecap="round"></line><line x1="448.2706077025643" x2="429.6373125912026" y1="-486.19780965449684" y2="-467.56451454313515" stroke-width="5" stroke="#849ecb" stroke-linecap="round"></line><line x1="704.2706077025643" x2="685.6373125912025" y1="-486.19780965449684" y2="-467.56451454313515" stroke-width="5" stroke="#849ecb" stroke-linecap="round"></line><line x1="192.2706077025643" x2="173.6373125912026" y1="-230.19780965449684" y2="-211.56451454313515" stroke-width="5" stroke="#849ecb" stroke-linecap="round"></line><line x1="448.2706077025643" x2="429.6373125912026" y1="-230.19780965449684" y2="-211.56451454313515" stroke-width="5" stroke="#849ecb" stroke-linecap="round"></line><line x1="704.2706077025643" x2="685.6373125912025" y1="-230.19780965449684" y2="-211.56451454313515" stroke-width="5" stroke="#849ecb" stroke-linecap="round"></line><line x1="192.2706077025643" x2="173.6373125912026" y1="25.802190345503167" y2="44.43548545686485" stroke-width="5" stroke="#849ecb" stroke-linecap="round"></line><line x1="448.2706077025643" x2="429.6373125912026" y1="25.802190345503167" y2="44.43548545686485" stroke-width="5" stroke="#849ecb" stroke-linecap="round"></line><line x1="704.2706077025643" x2="685.6373125912025" y1="25.802190345503167" y2="44.43548545686485" stroke-width="5" stroke="#849ecb" stroke-linecap="round"></line><line x1="173.11214972961463" x2="147.5367591239275" y1="140.9500355799519" y2="166.52542618563902" stroke-width="5" stroke="#849ecb" stroke-linecap="round"></line><line x1="173.11214972961463" x2="147.5367591239275" y1="-371.0499644200481" y2="-345.47457381436095" stroke-width="5" stroke="#849ecb" stroke-linecap="round"></line><line x1="429.11214972961466" x2="403.5367591239275" y1="-371.0499644200481" y2="-345.47457381436095" stroke-width="5" stroke="#849ecb" stroke-linecap="round"></line><line x1="685.1121497296147" x2="659.5367591239275" y1="-371.0499644200481" y2="-345.47457381436095" stroke-width="5" stroke="#849ecb" stroke-linecap="round"></line><line x1="173.11214972961463" x2="147.5367591239275" y1="-115.0499644200481" y2="-89.47457381436098" stroke-width="5" stroke="#849ecb" stroke-linecap="round"></line><line x1="429.11214972961466" x2="403.5367591239275" y1="-115.0499644200481" y2="-89.47457381436098" stroke-width="5" stroke="#849ecb" stroke-linecap="round"></line><line x1="685.1121497296147" x2="659.5367591239275" y1="-115.0499644200481" y2="-89.47457381436098" stroke-width="5" stroke="#849ecb" stroke-linecap="round"></line><line x1="173.11214972961463" x2="147.5367591239275" y1="140.9500355799519" y2="166.52542618563902" stroke-width="5" stroke="#849ecb" stroke-linecap="round"></line><line x1="429.11214972961466" x2="403.5367591239275" y1="140.9500355799519" y2="166.52542618563902" stroke-width="5" stroke="#849ecb" stroke-linecap="round"></line><line x1="685.1121497296147" x2="659.5367591239275" y1="140.9500355799519" y2="166.52542618563902" stroke-width="5" stroke="#849ecb" stroke-linecap="round"></line><line x1="180.72222662079727" x2="161.71151910215022" y1="-3.885139890118726" y2="15.125567628528334" stroke-width="5" stroke="#849ecb" stroke-linecap="round"></line><line x1="180.72222662079727" x2="161.71151910215022" y1="-515.8851398901187" y2="-496.87443237147164" stroke-width="5" stroke="#849ecb" stroke-linecap="round"></line><line x1="436.7222266207973" x2="417.7115191021502" y1="-515.8851398901187" y2="-496.87443237147164" stroke-width="5" stroke="#849ecb" stroke-linecap="round"></line><line x1="692.7222266207973" x2="673.7115191021502" y1="-515.8851398901187" y2="-496.87443237147164" stroke-width="5" stroke="#849ecb" stroke-linecap="round"></line><line x1="180.72222662079727" x2="161.71151910215022" y1="-259.88513989011875" y2="-240.87443237147167" stroke-width="5" stroke="#849ecb" stroke-linecap="round"></line><line x1="436.7222266207973" x2="417.7115191021502" y1="-259.88513989011875" y2="-240.87443237147167" stroke-width="5" stroke="#849ecb" stroke-linecap="round"></line><line x1="692.7222266207973" x2="673.7115191021502" y1="-259.88513989011875" y2="-240.87443237147167" stroke-width="5" stroke="#849ecb" stroke-linecap="round"></line><line x1="180.72222662079727" x2="161.71151910215022" y1="-3.885139890118726" y2="15.125567628528334" stroke-width="5" stroke="#849ecb" stroke-linecap="round"></line><line x1="436.7222266207973" x2="417.7115191021502" y1="-3.885139890118726" y2="15.125567628528334" stroke-width="5" stroke="#849ecb" stroke-linecap="round"></line><line x1="692.7222266207973" x2="673.7115191021502" y1="-3.885139890118726" y2="15.125567628528334" stroke-width="5" stroke="#849ecb" stroke-linecap="round"></line><line x1="180.72222662079727" x2="161.71151910215022" y1="252.11486010988128" y2="271.12556762852836" stroke-width="5" stroke="#849ecb" stroke-linecap="round"></line><line x1="27.115138004679977" x2="7.259311332891173" y1="146.9899641976354" y2="166.8457908694242" stroke-width="5" stroke="#849ecb" stroke-linecap="round"></line><line x1="27.115138004679977" x2="7.259311332891173" y1="-365.0100358023646" y2="-345.1542091305758" stroke-width="5" stroke="#849ecb" stroke-linecap="round"></line><line x1="283.11513800468" x2="263.2593113328912" y1="-365.0100358023646" y2="-345.1542091305758" stroke-width="5" stroke="#849ecb" stroke-linecap="round"></line><line x1="539.1151380046799" x2="519.2593113328912" y1="-365.0100358023646" y2="-345.1542091305758" stroke-width="5" stroke="#849ecb" stroke-linecap="round"></line><line x1="27.115138004679977" x2="7.259311332891173" y1="-109.0100358023646" y2="-89.1542091305758" stroke-width="5" stroke="#849ecb" stroke-linecap="round"></line><line x1="283.11513800468" x2="263.2593113328912" y1="-109.0100358023646" y2="-89.1542091305758" stroke-width="5" stroke="#849ecb" stroke-linecap="round"></line><line x1="539.1151380046799" x2="519.2593113328912" y1="-109.0100358023646" y2="-89.1542091305758" stroke-width="5" stroke="#849ecb" stroke-linecap="round"></line><line x1="27.115138004679977" x2="7.259311332891173" y1="146.9899641976354" y2="166.8457908694242" stroke-width="5" stroke="#849ecb" stroke-linecap="round"></line><line x1="283.11513800468" x2="263.2593113328912" y1="146.9899641976354" y2="166.8457908694242" stroke-width="5" stroke="#849ecb" stroke-linecap="round"></line><line x1="539.1151380046799" x2="519.2593113328912" y1="146.9899641976354" y2="166.8457908694242" stroke-width="5" stroke="#849ecb" stroke-linecap="round"></line><line x1="78.68582589906808" x2="64.17255627775691" y1="108.26245098823907" y2="122.77572060955023" stroke-width="5" stroke="#849ecb" stroke-linecap="round"></line><line x1="78.68582589906808" x2="64.17255627775691" y1="-403.73754901176096" y2="-389.22427939044974" stroke-width="5" stroke="#849ecb" stroke-linecap="round"></line><line x1="334.68582589906805" x2="320.17255627775694" y1="-403.73754901176096" y2="-389.22427939044974" stroke-width="5" stroke="#849ecb" stroke-linecap="round"></line><line x1="590.685825899068" x2="576.1725562777569" y1="-403.73754901176096" y2="-389.22427939044974" stroke-width="5" stroke="#849ecb" stroke-linecap="round"></line><line x1="78.68582589906808" x2="64.17255627775691" y1="-147.73754901176093" y2="-133.22427939044977" stroke-width="5" stroke="#849ecb" stroke-linecap="round"></line><line x1="334.68582589906805" x2="320.17255627775694" y1="-147.73754901176093" y2="-133.22427939044977" stroke-width="5" stroke="#849ecb" stroke-linecap="round"></line><line x1="590.685825899068" x2="576.1725562777569" y1="-147.73754901176093" y2="-133.22427939044977" stroke-width="5" stroke="#849ecb" stroke-linecap="round"></line><line x1="78.68582589906808" x2="64.17255627775691" y1="108.26245098823907" y2="122.77572060955023" stroke-width="5" stroke="#849ecb" stroke-linecap="round"></line><line x1="334.68582589906805" x2="320.17255627775694" y1="108.26245098823907" y2="122.77572060955023" stroke-width="5" stroke="#849ecb" stroke-linecap="round"></line><line x1="590.685825899068" x2="576.1725562777569" y1="108.26245098823907" y2="122.77572060955023" stroke-width="5" stroke="#849ecb" stroke-linecap="round"></line><line x1="48.034591464773" x2="21.612945407750463" y1="82.70777575115656" y2="109.1294218081791" stroke-width="5" stroke="#849ecb" stroke-linecap="round"></line><line x1="48.034591464773" x2="21.612945407750463" y1="-429.29222424884347" y2="-402.87057819182087" stroke-width="5" stroke="#849ecb" stroke-linecap="round"></line><line x1="304.03459146477303" x2="277.6129454077505" y1="-429.29222424884347" y2="-402.87057819182087" stroke-width="5" stroke="#849ecb" stroke-linecap="round"></line><line x1="560.034591464773" x2="533.6129454077504" y1="-429.29222424884347" y2="-402.87057819182087" stroke-width="5" stroke="#849ecb" stroke-linecap="round"></line><line x1="48.034591464773" x2="21.612945407750463" y1="-173.29222424884344" y2="-146.8705781918209" stroke-width="5" stroke="#849ecb" stroke-linecap="round"></line><line x1="304.03459146477303" x2="277.6129454077505" y1="-173.29222424884344" y2="-146.8705781918209" stroke-width="5" stroke="#849ecb" stroke-linecap="round"></line><line x1="560.034591464773" x2="533.6129454077504" y1="-173.29222424884344" y2="-146.8705781918209" stroke-width="5" stroke="#849ecb" stroke-linecap="round"></line><line x1="48.034591464773" x2="21.612945407750463" y1="82.70777575115656" y2="109.1294218081791" stroke-width="5" stroke="#849ecb" stroke-linecap="round"></line><line x1="304.03459146477303" x2="277.6129454077505" y1="82.70777575115656" y2="109.1294218081791" stroke-width="5" stroke="#849ecb" stroke-linecap="round"></line><line x1="560.034591464773" x2="533.6129454077504" y1="82.70777575115656" y2="109.1294218081791" stroke-width="5" stroke="#849ecb" stroke-linecap="round"></line>
  <animateTransform attributeName="transform" type="translate" values="0 0;-256 256" keyTimes="0;1" repeatCount="indefinite" dur="2.564102564102564s"></animateTransform>
</g></g></svg>