<?xml version="1.0" encoding="utf-8"?>
<svg xmlns="http://www.w3.org/2000/svg" xmlns:xlink="http://www.w3.org/1999/xlink" style="background: rgb(19, 54, 89); display: block; position: relative; shape-rendering: auto;" width="102" height="102" preserveAspectRatio="xMidYMid" viewBox="0 0 102 102"><g transform="scale(0.4)"><g>
  <line x1="57.8803969791395" x2="25.382100716261114" y1="200.73579646553463" y2="233.23409272841303" stroke-width="4" stroke="#456caa" stroke-linecap="round"></line><line x1="57.8803969791395" x2="25.382100716261114" y1="-311.26420353446537" y2="-278.76590727158697" stroke-width="4" stroke="#456caa" stroke-linecap="round"></line><line x1="313.8803969791395" x2="281.3821007162611" y1="-311.26420353446537" y2="-278.76590727158697" stroke-width="4" stroke="#456caa" stroke-linecap="round"></line><line x1="569.8803969791395" x2="537.3821007162611" y1="-311.26420353446537" y2="-278.76590727158697" stroke-width="4" stroke="#456caa" stroke-linecap="round"></line><line x1="57.8803969791395" x2="25.382100716261114" y1="-55.264203534465366" y2="-22.76590727158697" stroke-width="4" stroke="#456caa" stroke-linecap="round"></line><line x1="313.8803969791395" x2="281.3821007162611" y1="-55.264203534465366" y2="-22.76590727158697" stroke-width="4" stroke="#456caa" stroke-linecap="round"></line><line x1="569.8803969791395" x2="537.3821007162611" y1="-55.264203534465366" y2="-22.76590727158697" stroke-width="4" stroke="#456caa" stroke-linecap="round"></line><line x1="57.8803969791395" x2="25.382100716261114" y1="200.73579646553463" y2="233.23409272841303" stroke-width="4" stroke="#456caa" stroke-linecap="round"></line><line x1="313.8803969791395" x2="281.3821007162611" y1="200.73579646553463" y2="233.23409272841303" stroke-width="4" stroke="#456caa" stroke-linecap="round"></line><line x1="569.8803969791395" x2="537.3821007162611" y1="200.73579646553463" y2="233.23409272841303" stroke-width="4" stroke="#456caa" stroke-linecap="round"></line><line x1="70.45462777418592" x2="40.76518872917736" y1="240.62467263677834" y2="270.3141116817869" stroke-width="4" stroke="#456caa" stroke-linecap="round"></line><line x1="70.45462777418592" x2="40.76518872917736" y1="-271.3753273632217" y2="-241.68588831821307" stroke-width="4" stroke="#456caa" stroke-linecap="round"></line><line x1="326.45462777418595" x2="296.76518872917734" y1="-271.3753273632217" y2="-241.68588831821307" stroke-width="4" stroke="#456caa" stroke-linecap="round"></line><line x1="582.454627774186" x2="552.7651887291773" y1="-271.3753273632217" y2="-241.68588831821307" stroke-width="4" stroke="#456caa" stroke-linecap="round"></line><line x1="70.45462777418592" x2="40.76518872917736" y1="-15.375327363221658" y2="14.314111681786926" stroke-width="4" stroke="#456caa" stroke-linecap="round"></line><line x1="326.45462777418595" x2="296.76518872917734" y1="-15.375327363221658" y2="14.314111681786926" stroke-width="4" stroke="#456caa" stroke-linecap="round"></line><line x1="582.454627774186" x2="552.7651887291773" y1="-15.375327363221658" y2="14.314111681786926" stroke-width="4" stroke="#456caa" stroke-linecap="round"></line><line x1="70.45462777418592" x2="40.76518872917736" y1="240.62467263677834" y2="270.3141116817869" stroke-width="4" stroke="#456caa" stroke-linecap="round"></line><line x1="326.45462777418595" x2="296.76518872917734" y1="240.62467263677834" y2="270.3141116817869" stroke-width="4" stroke="#456caa" stroke-linecap="round"></line><line x1="582.454627774186" x2="552.7651887291773" y1="240.62467263677834" y2="270.3141116817869" stroke-width="4" stroke="#456caa" stroke-linecap="round"></line><line x1="33.3065759768464" x2="-0.7725868076273912" y1="143.55992325000264" y2="177.63908603447643" stroke-width="4" stroke="#456caa" stroke-linecap="round"></line><line x1="33.3065759768464" x2="-0.7725868076273912" y1="-368.4400767499974" y2="-334.36091396552354" stroke-width="4" stroke="#456caa" stroke-linecap="round"></line><line x1="289.3065759768464" x2="255.2274131923726" y1="-368.4400767499974" y2="-334.36091396552354" stroke-width="4" stroke="#456caa" stroke-linecap="round"></line><line x1="545.3065759768464" x2="511.22741319237264" y1="-368.4400767499974" y2="-334.36091396552354" stroke-width="4" stroke="#456caa" stroke-linecap="round"></line><line x1="33.3065759768464" x2="-0.7725868076273912" y1="-112.44007674999736" y2="-78.36091396552357" stroke-width="4" stroke="#456caa" stroke-linecap="round"></line><line x1="289.3065759768464" x2="255.2274131923726" y1="-112.44007674999736" y2="-78.36091396552357" stroke-width="4" stroke="#456caa" stroke-linecap="round"></line><line x1="545.3065759768464" x2="511.22741319237264" y1="-112.44007674999736" y2="-78.36091396552357" stroke-width="4" stroke="#456caa" stroke-linecap="round"></line><line x1="33.3065759768464" x2="-0.7725868076273912" y1="143.55992325000264" y2="177.63908603447643" stroke-width="4" stroke="#456caa" stroke-linecap="round"></line><line x1="289.3065759768464" x2="255.2274131923726" y1="143.55992325000264" y2="177.63908603447643" stroke-width="4" stroke="#456caa" stroke-linecap="round"></line><line x1="545.3065759768464" x2="511.22741319237264" y1="143.55992325000264" y2="177.63908603447643" stroke-width="4" stroke="#456caa" stroke-linecap="round"></line><line x1="216.5860078869665" x2="188.3715213846549" y1="86.87039769391089" y2="115.0848841962225" stroke-width="4" stroke="#456caa" stroke-linecap="round"></line><line x1="216.5860078869665" x2="188.3715213846549" y1="-425.1296023060891" y2="-396.9151158037775" stroke-width="4" stroke="#456caa" stroke-linecap="round"></line><line x1="472.5860078869665" x2="444.3715213846549" y1="-425.1296023060891" y2="-396.9151158037775" stroke-width="4" stroke="#456caa" stroke-linecap="round"></line><line x1="728.5860078869665" x2="700.3715213846549" y1="-425.1296023060891" y2="-396.9151158037775" stroke-width="4" stroke="#456caa" stroke-linecap="round"></line><line x1="216.5860078869665" x2="188.3715213846549" y1="-169.1296023060891" y2="-140.9151158037775" stroke-width="4" stroke="#456caa" stroke-linecap="round"></line><line x1="472.5860078869665" x2="444.3715213846549" y1="-169.1296023060891" y2="-140.9151158037775" stroke-width="4" stroke="#456caa" stroke-linecap="round"></line><line x1="728.5860078869665" x2="700.3715213846549" y1="-169.1296023060891" y2="-140.9151158037775" stroke-width="4" stroke="#456caa" stroke-linecap="round"></line><line x1="216.5860078869665" x2="188.3715213846549" y1="86.87039769391089" y2="115.0848841962225" stroke-width="4" stroke="#456caa" stroke-linecap="round"></line><line x1="472.5860078869665" x2="444.3715213846549" y1="86.87039769391089" y2="115.0848841962225" stroke-width="4" stroke="#456caa" stroke-linecap="round"></line><line x1="728.5860078869665" x2="700.3715213846549" y1="86.87039769391089" y2="115.0848841962225" stroke-width="4" stroke="#456caa" stroke-linecap="round"></line>
  <animateTransform attributeName="transform" type="translate" values="0 0;-256 256" keyTimes="0;1" repeatCount="indefinite" dur="10s"></animateTransform>
</g><g>
  <line x1="113.11587720816523" x2="81.5912450269859" y1="21.231739984096222" y2="52.75637216527555" stroke-width="4" stroke="#88a2ce" stroke-linecap="round"></line><line x1="113.11587720816523" x2="81.5912450269859" y1="-490.76826001590376" y2="-459.24362783472446" stroke-width="4" stroke="#88a2ce" stroke-linecap="round"></line><line x1="369.1158772081652" x2="337.5912450269859" y1="-490.76826001590376" y2="-459.24362783472446" stroke-width="4" stroke="#88a2ce" stroke-linecap="round"></line><line x1="625.1158772081652" x2="593.5912450269859" y1="-490.76826001590376" y2="-459.24362783472446" stroke-width="4" stroke="#88a2ce" stroke-linecap="round"></line><line x1="113.11587720816523" x2="81.5912450269859" y1="-234.76826001590376" y2="-203.24362783472446" stroke-width="4" stroke="#88a2ce" stroke-linecap="round"></line><line x1="369.1158772081652" x2="337.5912450269859" y1="-234.76826001590376" y2="-203.24362783472446" stroke-width="4" stroke="#88a2ce" stroke-linecap="round"></line><line x1="625.1158772081652" x2="593.5912450269859" y1="-234.76826001590376" y2="-203.24362783472446" stroke-width="4" stroke="#88a2ce" stroke-linecap="round"></line><line x1="113.11587720816523" x2="81.5912450269859" y1="21.231739984096222" y2="52.75637216527555" stroke-width="4" stroke="#88a2ce" stroke-linecap="round"></line><line x1="369.1158772081652" x2="337.5912450269859" y1="21.231739984096222" y2="52.75637216527555" stroke-width="4" stroke="#88a2ce" stroke-linecap="round"></line><line x1="625.1158772081652" x2="593.5912450269859" y1="21.231739984096222" y2="52.75637216527555" stroke-width="4" stroke="#88a2ce" stroke-linecap="round"></line><line x1="265.94657682107623" x2="234.40185650254983" y1="130.82712987650513" y2="162.37185019503153" stroke-width="4" stroke="#88a2ce" stroke-linecap="round"></line><line x1="265.94657682107623" x2="234.40185650254983" y1="-381.1728701234949" y2="-349.6281498049685" stroke-width="4" stroke="#88a2ce" stroke-linecap="round"></line><line x1="521.9465768210762" x2="490.40185650254983" y1="-381.1728701234949" y2="-349.6281498049685" stroke-width="4" stroke="#88a2ce" stroke-linecap="round"></line><line x1="777.9465768210762" x2="746.4018565025499" y1="-381.1728701234949" y2="-349.6281498049685" stroke-width="4" stroke="#88a2ce" stroke-linecap="round"></line><line x1="265.94657682107623" x2="234.40185650254983" y1="-125.17287012349487" y2="-93.62814980496847" stroke-width="4" stroke="#88a2ce" stroke-linecap="round"></line><line x1="521.9465768210762" x2="490.40185650254983" y1="-125.17287012349487" y2="-93.62814980496847" stroke-width="4" stroke="#88a2ce" stroke-linecap="round"></line><line x1="777.9465768210762" x2="746.4018565025499" y1="-125.17287012349487" y2="-93.62814980496847" stroke-width="4" stroke="#88a2ce" stroke-linecap="round"></line><line x1="265.94657682107623" x2="234.40185650254983" y1="130.82712987650513" y2="162.37185019503153" stroke-width="4" stroke="#88a2ce" stroke-linecap="round"></line><line x1="521.9465768210762" x2="490.40185650254983" y1="130.82712987650513" y2="162.37185019503153" stroke-width="4" stroke="#88a2ce" stroke-linecap="round"></line><line x1="777.9465768210762" x2="746.4018565025499" y1="130.82712987650513" y2="162.37185019503153" stroke-width="4" stroke="#88a2ce" stroke-linecap="round"></line><line x1="9.946576821076235" x2="-21.598143497450167" y1="130.82712987650513" y2="162.37185019503153" stroke-width="4" stroke="#88a2ce" stroke-linecap="round"></line><line x1="165.30955904136772" x2="137.02433433166448" y1="42.239539589241424" y2="70.52476429894465" stroke-width="4" stroke="#88a2ce" stroke-linecap="round"></line><line x1="165.30955904136772" x2="137.02433433166448" y1="-469.7604604107586" y2="-441.47523570105534" stroke-width="4" stroke="#88a2ce" stroke-linecap="round"></line><line x1="421.3095590413677" x2="393.0243343316645" y1="-469.7604604107586" y2="-441.47523570105534" stroke-width="4" stroke="#88a2ce" stroke-linecap="round"></line><line x1="677.3095590413677" x2="649.0243343316645" y1="-469.7604604107586" y2="-441.47523570105534" stroke-width="4" stroke="#88a2ce" stroke-linecap="round"></line><line x1="165.30955904136772" x2="137.02433433166448" y1="-213.76046041075858" y2="-185.47523570105534" stroke-width="4" stroke="#88a2ce" stroke-linecap="round"></line><line x1="421.3095590413677" x2="393.0243343316645" y1="-213.76046041075858" y2="-185.47523570105534" stroke-width="4" stroke="#88a2ce" stroke-linecap="round"></line><line x1="677.3095590413677" x2="649.0243343316645" y1="-213.76046041075858" y2="-185.47523570105534" stroke-width="4" stroke="#88a2ce" stroke-linecap="round"></line><line x1="165.30955904136772" x2="137.02433433166448" y1="42.239539589241424" y2="70.52476429894465" stroke-width="4" stroke="#88a2ce" stroke-linecap="round"></line><line x1="421.3095590413677" x2="393.0243343316645" y1="42.239539589241424" y2="70.52476429894465" stroke-width="4" stroke="#88a2ce" stroke-linecap="round"></line><line x1="677.3095590413677" x2="649.0243343316645" y1="42.239539589241424" y2="70.52476429894465" stroke-width="4" stroke="#88a2ce" stroke-linecap="round"></line><line x1="269.1532829192299" x2="239.97292251972712" y1="189.63332750080448" y2="218.81368790030731" stroke-width="4" stroke="#88a2ce" stroke-linecap="round"></line><line x1="269.1532829192299" x2="239.97292251972712" y1="-322.3666724991955" y2="-293.1863120996927" stroke-width="4" stroke="#88a2ce" stroke-linecap="round"></line><line x1="525.1532829192299" x2="495.97292251972715" y1="-322.3666724991955" y2="-293.1863120996927" stroke-width="4" stroke="#88a2ce" stroke-linecap="round"></line><line x1="781.1532829192299" x2="751.9729225197271" y1="-322.3666724991955" y2="-293.1863120996927" stroke-width="4" stroke="#88a2ce" stroke-linecap="round"></line><line x1="269.1532829192299" x2="239.97292251972712" y1="-66.36667249919552" y2="-37.186312099692685" stroke-width="4" stroke="#88a2ce" stroke-linecap="round"></line><line x1="525.1532829192299" x2="495.97292251972715" y1="-66.36667249919552" y2="-37.186312099692685" stroke-width="4" stroke="#88a2ce" stroke-linecap="round"></line><line x1="781.1532829192299" x2="751.9729225197271" y1="-66.36667249919552" y2="-37.186312099692685" stroke-width="4" stroke="#88a2ce" stroke-linecap="round"></line><line x1="269.1532829192299" x2="239.97292251972712" y1="189.63332750080448" y2="218.81368790030731" stroke-width="4" stroke="#88a2ce" stroke-linecap="round"></line><line x1="525.1532829192299" x2="495.97292251972715" y1="189.63332750080448" y2="218.81368790030731" stroke-width="4" stroke="#88a2ce" stroke-linecap="round"></line><line x1="781.1532829192299" x2="751.9729225197271" y1="189.63332750080448" y2="218.81368790030731" stroke-width="4" stroke="#88a2ce" stroke-linecap="round"></line><line x1="13.153282919229923" x2="-16.02707748027288" y1="189.63332750080448" y2="218.81368790030731" stroke-width="4" stroke="#88a2ce" stroke-linecap="round"></line>
  <animateTransform attributeName="transform" type="translate" values="0 0;-256 256" keyTimes="0;1" repeatCount="indefinite" dur="5s"></animateTransform>
</g><g>
  <line x1="179.21590080787055" x2="150.7308413229825" y1="198.70942394061282" y2="227.19448342550086" stroke-width="4" stroke="#c2d2ee" stroke-linecap="round"></line><line x1="179.21590080787055" x2="150.7308413229825" y1="-313.29057605938715" y2="-284.80551657449917" stroke-width="4" stroke="#c2d2ee" stroke-linecap="round"></line><line x1="435.2159008078705" x2="406.73084132298254" y1="-313.29057605938715" y2="-284.80551657449917" stroke-width="4" stroke="#c2d2ee" stroke-linecap="round"></line><line x1="691.2159008078705" x2="662.7308413229825" y1="-313.29057605938715" y2="-284.80551657449917" stroke-width="4" stroke="#c2d2ee" stroke-linecap="round"></line><line x1="179.21590080787055" x2="150.7308413229825" y1="-57.29057605938718" y2="-28.805516574499137" stroke-width="4" stroke="#c2d2ee" stroke-linecap="round"></line><line x1="435.2159008078705" x2="406.73084132298254" y1="-57.29057605938718" y2="-28.805516574499137" stroke-width="4" stroke="#c2d2ee" stroke-linecap="round"></line><line x1="691.2159008078705" x2="662.7308413229825" y1="-57.29057605938718" y2="-28.805516574499137" stroke-width="4" stroke="#c2d2ee" stroke-linecap="round"></line><line x1="179.21590080787055" x2="150.7308413229825" y1="198.70942394061282" y2="227.19448342550086" stroke-width="4" stroke="#c2d2ee" stroke-linecap="round"></line><line x1="435.2159008078705" x2="406.73084132298254" y1="198.70942394061282" y2="227.19448342550086" stroke-width="4" stroke="#c2d2ee" stroke-linecap="round"></line><line x1="691.2159008078705" x2="662.7308413229825" y1="198.70942394061282" y2="227.19448342550086" stroke-width="4" stroke="#c2d2ee" stroke-linecap="round"></line><line x1="261.26551165903203" x2="227.6012412943034" y1="54.09973460452165" y2="87.76400496925027" stroke-width="4" stroke="#c2d2ee" stroke-linecap="round"></line><line x1="261.26551165903203" x2="227.6012412943034" y1="-457.90026539547836" y2="-424.23599503074973" stroke-width="4" stroke="#c2d2ee" stroke-linecap="round"></line><line x1="517.265511659032" x2="483.6012412943034" y1="-457.90026539547836" y2="-424.23599503074973" stroke-width="4" stroke="#c2d2ee" stroke-linecap="round"></line><line x1="773.265511659032" x2="739.6012412943035" y1="-457.90026539547836" y2="-424.23599503074973" stroke-width="4" stroke="#c2d2ee" stroke-linecap="round"></line><line x1="261.26551165903203" x2="227.6012412943034" y1="-201.90026539547836" y2="-168.23599503074973" stroke-width="4" stroke="#c2d2ee" stroke-linecap="round"></line><line x1="517.265511659032" x2="483.6012412943034" y1="-201.90026539547836" y2="-168.23599503074973" stroke-width="4" stroke="#c2d2ee" stroke-linecap="round"></line><line x1="773.265511659032" x2="739.6012412943035" y1="-201.90026539547836" y2="-168.23599503074973" stroke-width="4" stroke="#c2d2ee" stroke-linecap="round"></line><line x1="261.26551165903203" x2="227.6012412943034" y1="54.09973460452165" y2="87.76400496925027" stroke-width="4" stroke="#c2d2ee" stroke-linecap="round"></line><line x1="517.265511659032" x2="483.6012412943034" y1="54.09973460452165" y2="87.76400496925027" stroke-width="4" stroke="#c2d2ee" stroke-linecap="round"></line><line x1="773.265511659032" x2="739.6012412943035" y1="54.09973460452165" y2="87.76400496925027" stroke-width="4" stroke="#c2d2ee" stroke-linecap="round"></line><line x1="5.265511659032029" x2="-28.398758705696594" y1="54.09973460452165" y2="87.76400496925027" stroke-width="4" stroke="#c2d2ee" stroke-linecap="round"></line><line x1="183.61624247635007" x2="153.14131783234552" y1="51.890293586893264" y2="82.36521823089784" stroke-width="4" stroke="#c2d2ee" stroke-linecap="round"></line><line x1="183.61624247635007" x2="153.14131783234552" y1="-460.1097064131067" y2="-429.6347817691022" stroke-width="4" stroke="#c2d2ee" stroke-linecap="round"></line><line x1="439.61624247635007" x2="409.1413178323455" y1="-460.1097064131067" y2="-429.6347817691022" stroke-width="4" stroke="#c2d2ee" stroke-linecap="round"></line><line x1="695.6162424763501" x2="665.1413178323455" y1="-460.1097064131067" y2="-429.6347817691022" stroke-width="4" stroke="#c2d2ee" stroke-linecap="round"></line><line x1="183.61624247635007" x2="153.14131783234552" y1="-204.10970641310672" y2="-173.63478176910218" stroke-width="4" stroke="#c2d2ee" stroke-linecap="round"></line><line x1="439.61624247635007" x2="409.1413178323455" y1="-204.10970641310672" y2="-173.63478176910218" stroke-width="4" stroke="#c2d2ee" stroke-linecap="round"></line><line x1="695.6162424763501" x2="665.1413178323455" y1="-204.10970641310672" y2="-173.63478176910218" stroke-width="4" stroke="#c2d2ee" stroke-linecap="round"></line><line x1="183.61624247635007" x2="153.14131783234552" y1="51.890293586893264" y2="82.36521823089784" stroke-width="4" stroke="#c2d2ee" stroke-linecap="round"></line><line x1="439.61624247635007" x2="409.1413178323455" y1="51.890293586893264" y2="82.36521823089784" stroke-width="4" stroke="#c2d2ee" stroke-linecap="round"></line><line x1="695.6162424763501" x2="665.1413178323455" y1="51.890293586893264" y2="82.36521823089784" stroke-width="4" stroke="#c2d2ee" stroke-linecap="round"></line><line x1="61.171519370652206" x2="27.42821567091399" y1="136.2360933965637" y2="169.97939709630188" stroke-width="4" stroke="#c2d2ee" stroke-linecap="round"></line><line x1="61.171519370652206" x2="27.42821567091399" y1="-375.76390660343634" y2="-342.0206029036981" stroke-width="4" stroke="#c2d2ee" stroke-linecap="round"></line><line x1="317.1715193706522" x2="283.42821567091397" y1="-375.76390660343634" y2="-342.0206029036981" stroke-width="4" stroke="#c2d2ee" stroke-linecap="round"></line><line x1="573.1715193706522" x2="539.428215670914" y1="-375.76390660343634" y2="-342.0206029036981" stroke-width="4" stroke="#c2d2ee" stroke-linecap="round"></line><line x1="61.171519370652206" x2="27.42821567091399" y1="-119.76390660343631" y2="-86.02060290369812" stroke-width="4" stroke="#c2d2ee" stroke-linecap="round"></line><line x1="317.1715193706522" x2="283.42821567091397" y1="-119.76390660343631" y2="-86.02060290369812" stroke-width="4" stroke="#c2d2ee" stroke-linecap="round"></line><line x1="573.1715193706522" x2="539.428215670914" y1="-119.76390660343631" y2="-86.02060290369812" stroke-width="4" stroke="#c2d2ee" stroke-linecap="round"></line><line x1="61.171519370652206" x2="27.42821567091399" y1="136.2360933965637" y2="169.97939709630188" stroke-width="4" stroke="#c2d2ee" stroke-linecap="round"></line><line x1="317.1715193706522" x2="283.42821567091397" y1="136.2360933965637" y2="169.97939709630188" stroke-width="4" stroke="#c2d2ee" stroke-linecap="round"></line><line x1="573.1715193706522" x2="539.428215670914" y1="136.2360933965637" y2="169.97939709630188" stroke-width="4" stroke="#c2d2ee" stroke-linecap="round"></line>
  <animateTransform attributeName="transform" type="translate" values="0 0;-256 256" keyTimes="0;1" repeatCount="indefinite" dur="3.3333333333333335s"></animateTransform>
</g></g></svg>